<svg width="3818" height="4351" viewBox="0 0 3818 4351" fill="none" xmlns="http://www.w3.org/2000/svg">
<path fill-rule="evenodd" clip-rule="evenodd" d="M361.813 3.23624C361.497 5.98624 361.498 5.98621 342.748 6.25821C323.998 6.53021 323.998 6.53021 323.998 9.50821C323.998 12.4862 323.997 12.4862 315.637 12.4862C302.23 12.4862 297.998 13.3262 297.998 15.9862C297.998 18.4382 293.764 19.4862 283.858 19.4862C279.125 19.4862 278.998 19.5642 278.998 22.4862C278.998 25.4862 278.998 25.4862 269.498 25.4862C259.998 25.4862 259.998 25.4862 259.998 28.4862C259.998 31.4372 259.912 31.4862 254.748 31.4972C245.113 31.5172 242.144 32.4022 241.802 35.3582C241.513 37.8452 241.163 38.0022 235.248 38.2842C229.06 38.5782 228.998 38.6112 228.998 41.5342C228.998 44.4862 228.998 44.4862 222.498 44.4862C215.998 44.4862 215.998 44.4863 215.998 47.4233C215.998 50.0053 215.606 50.3973 212.748 50.6733C210.071 50.9313 209.443 51.4542 209.189 53.6442C208.906 56.0982 208.423 56.3562 202.939 56.9932C197.207 57.6582 196.998 57.7853 196.998 60.5843C196.998 63.4863 196.998 63.4862 190.498 63.4862C183.998 63.4862 183.998 63.4862 183.998 66.4862C183.998 69.1532 183.665 69.4862 180.998 69.4862C178.35 69.4862 177.998 69.8283 177.998 72.4063C177.998 75.2633 177.855 75.3422 171.498 76.0232C165.162 76.7012 164.998 76.7922 164.998 79.6022C164.998 82.1402 164.638 82.4862 161.998 82.4862C159.346 82.4862 158.998 82.8262 158.998 85.4232C158.998 88.0052 158.606 88.3972 155.748 88.6732C152.89 88.9482 152.46 89.3782 152.185 92.2362C151.909 95.0942 151.517 95.4862 148.935 95.4862C146.338 95.4862 145.998 95.8342 145.998 98.4862C145.998 101.482 145.991 101.486 140.061 101.486C134.125 101.486 134.125 101.486 133.811 104.736C133.552 107.424 133.033 108.04 130.809 108.297C128.73 108.537 128.049 109.218 127.809 111.297C127.552 113.521 126.936 114.04 124.248 114.299C121.39 114.575 120.998 114.967 120.998 117.549C120.998 120.132 120.644 120.486 118.061 120.486C115.479 120.486 115.087 120.878 114.811 123.736C114.536 126.594 114.106 127.024 111.248 127.299C108.39 127.575 107.998 127.967 107.998 130.549C107.998 133.132 107.644 133.486 105.061 133.486C102.479 133.486 102.087 133.878 101.811 136.736C101.552 139.43 101.035 140.039 98.7905 140.298C96.2755 140.588 96.0345 141.034 95.4105 146.548C94.7645 152.264 94.6315 152.486 91.8685 152.486C89.3455 152.486 88.9976 152.849 88.9976 155.486C88.9976 158.138 88.6575 158.486 86.0605 158.486C83.4785 158.486 83.0865 158.878 82.8105 161.736C82.5525 164.413 82.0296 165.04 79.8396 165.294C77.3856 165.577 77.1276 166.06 76.4906 171.544C75.8256 177.276 75.6985 177.486 72.8995 177.486C70.2495 177.486 69.9976 177.79 69.9976 180.986C69.9976 184.182 69.7456 184.486 67.0956 184.486C64.2936 184.486 64.1706 184.691 63.4976 190.486C62.8246 196.281 62.7015 196.486 59.8995 196.486C57.2495 196.486 56.9976 196.79 56.9976 199.986C56.9976 203.208 56.7596 203.486 53.9976 203.486C50.9976 203.486 50.9976 203.486 50.9976 209.486C50.9976 215.486 50.9976 215.486 47.9976 215.486C44.9976 215.486 44.9976 215.486 44.9976 221.986C44.9976 228.486 44.9975 228.486 42.0775 228.486C39.2205 228.486 39.1416 228.629 38.4606 234.986C37.7826 241.322 37.6916 241.486 34.8816 241.486C31.9976 241.486 31.9976 241.486 31.9976 250.486C31.9976 259.486 31.9976 259.486 28.9976 259.486C26.0756 259.486 25.9976 259.613 25.9976 264.346C25.9976 274.652 24.9975 278.348 22.1185 278.682C19.5255 278.983 19.4946 279.084 19.2096 288.236C18.9226 297.486 18.9226 297.486 15.9596 297.486C12.9976 297.486 12.9976 297.486 12.9976 305.846C12.9976 319.494 12.1746 323.486 9.36157 323.486C7.12857 323.486 6.99755 323.833 6.99255 329.736C6.97855 347.02 5.82858 355.486 3.49658 355.486C-0.0864196 355.486 -0.00239131 329.678 0.000608689 1426.89C0.00360869 2531.89 -0.0423963 2517.49 3.4956 2517.49C5.9386 2517.49 6.9896 2537.67 6.9956 2584.67C6.9976 2605.35 6.99756 2605.35 9.74756 2605.67C12.4976 2605.99 12.4976 2605.99 12.7626 2634.74C13.0286 2663.49 13.0286 2663.49 16.0126 2663.49C18.9976 2663.49 18.9976 2663.49 18.9976 2679.33C18.9976 2705.36 19.8296 2713.49 22.4966 2713.49C24.9626 2713.49 25.9816 2722.01 25.9926 2742.74C25.9976 2752.49 25.9976 2752.49 28.9976 2752.49C31.9976 2752.49 31.9976 2752.49 31.9976 2770.99C31.9976 2789.49 31.9976 2789.49 34.9976 2789.49C37.9976 2789.49 37.9976 2789.49 37.9976 2800.85C37.9976 2817.25 38.7125 2821.49 41.4825 2821.49C43.8305 2821.49 44.9776 2829.91 44.9926 2847.24C44.9976 2853.49 44.9976 2853.49 47.9976 2853.49C50.9976 2853.49 50.9976 2853.49 50.9976 2866.49C50.9976 2879.49 50.9976 2879.49 53.9976 2879.49C56.9976 2879.49 56.9976 2879.49 56.9976 2885.83C56.9976 2902.45 58.1436 2910.49 60.5116 2910.49C63.1306 2910.49 63.9976 2914.75 63.9976 2927.63C63.9976 2935.49 63.9976 2935.49 66.9976 2935.49C69.9976 2935.49 69.9976 2935.49 69.9976 2945.49C69.9976 2955.49 69.9976 2955.49 72.9976 2955.49C75.9976 2955.49 75.9976 2955.49 75.9976 2962.85C75.9976 2975.24 76.8895 2979.49 79.4945 2979.49C81.9025 2979.49 82.9695 2984.14 82.9885 2994.74C82.9975 2999.35 83.0866 2999.49 85.9976 2999.49C88.9976 2999.49 88.9976 2999.49 88.9976 3011.99C88.9976 3024.49 88.9976 3024.49 91.9976 3024.49C94.9196 3024.49 94.9976 3024.61 94.9976 3029.35C94.9976 3039.65 95.9976 3043.35 98.8766 3043.68C101.47 3043.98 101.501 3044.08 101.786 3053.24C102.073 3062.49 102.073 3062.49 105.036 3062.49C107.998 3062.49 107.998 3062.49 107.998 3071.99C107.998 3081.49 107.998 3081.49 110.859 3081.49C113.943 3081.49 114.967 3085.14 114.989 3096.24C114.998 3100.29 115.137 3100.49 117.998 3100.49C120.998 3100.49 120.998 3100.49 120.998 3106.99C120.998 3113.49 120.998 3113.49 123.998 3113.49C126.998 3113.49 126.998 3113.49 126.998 3122.99C126.998 3132.49 126.998 3132.49 129.998 3132.49C132.859 3132.49 132.998 3132.68 133.007 3136.74C133.029 3147.83 134.053 3151.49 137.137 3151.49C139.991 3151.49 139.998 3151.5 139.998 3157.99C139.998 3164.49 139.998 3164.49 142.95 3164.49C145.873 3164.49 145.905 3164.55 146.199 3170.74C146.485 3176.73 146.612 3177 149.248 3177.3C151.772 3177.59 151.998 3177.97 151.998 3181.91C151.998 3191.65 153.041 3195.35 155.876 3195.68C158.355 3195.97 158.514 3196.33 158.796 3202.24C159.09 3208.42 159.123 3208.49 162.046 3208.49C164.998 3208.49 164.998 3208.49 164.998 3214.99C164.998 3221.49 164.998 3221.49 167.998 3221.49C170.873 3221.49 170.998 3221.67 170.998 3225.85C170.998 3235.65 172.036 3239.35 174.876 3239.68C177.355 3239.97 177.514 3240.33 177.796 3246.24C178.09 3252.42 178.123 3252.49 181.046 3252.49C183.998 3252.49 183.998 3252.49 183.998 3258.99C183.998 3265.49 183.997 3265.49 186.917 3265.49C189.774 3265.49 189.854 3265.63 190.535 3271.99C191.213 3278.32 191.304 3278.49 194.114 3278.49C196.997 3278.49 196.998 3278.49 196.998 3284.99C196.998 3291.49 196.998 3291.49 199.998 3291.49C202.998 3291.49 202.998 3291.49 202.998 3297.49C202.998 3303.43 203.024 3303.49 205.882 3303.49C208.692 3303.49 208.782 3303.65 209.46 3309.99C210.141 3316.34 210.221 3316.49 213.078 3316.49C215.98 3316.49 215.998 3316.52 215.998 3322.49C215.998 3328.43 216.024 3328.49 218.882 3328.49C221.692 3328.49 221.782 3328.65 222.46 3334.99C223.096 3340.92 223.359 3341.49 225.479 3341.49C227.571 3341.49 227.869 3342.08 228.49 3347.43C229.127 3352.91 229.386 3353.4 231.84 3353.68C234.123 3353.94 234.542 3354.52 234.808 3357.74C235.091 3361.15 235.383 3361.49 238.058 3361.49C240.985 3361.49 240.998 3361.51 240.998 3367.49C240.998 3373.45 241.015 3373.49 243.917 3373.49C246.774 3373.49 246.854 3373.63 247.535 3379.99C248.213 3386.32 248.304 3386.49 251.114 3386.49C253.972 3386.49 253.998 3386.54 253.998 3392.49C253.998 3398.49 253.998 3398.49 256.998 3398.49C259.76 3398.49 259.998 3398.76 259.998 3401.99C259.998 3405.18 260.25 3405.49 262.9 3405.49C265.702 3405.49 265.825 3405.69 266.498 3411.49C267.171 3417.28 267.293 3417.49 270.095 3417.49C272.997 3417.49 272.998 3417.49 272.998 3423.99C272.998 3430.49 272.998 3430.49 275.998 3430.49C278.665 3430.49 278.998 3430.82 278.998 3433.49C278.998 3436.13 279.339 3436.49 281.917 3436.49C284.774 3436.49 284.854 3436.63 285.535 3442.99C286.213 3449.32 286.304 3449.49 289.114 3449.49C291.743 3449.49 291.998 3449.8 291.998 3452.99C291.998 3456.21 292.236 3456.49 294.998 3456.49C297.998 3456.49 297.998 3456.49 297.998 3462.49C297.998 3468.49 297.998 3468.49 301.498 3468.49C304.831 3468.49 304.998 3468.65 304.998 3471.99C304.998 3475.21 305.236 3475.49 307.998 3475.49C310.998 3475.49 310.998 3475.49 310.998 3481.49C310.998 3487.46 311.012 3487.49 313.935 3487.49C316.517 3487.49 316.909 3487.88 317.185 3490.74C317.443 3493.41 317.966 3494.04 320.156 3494.29C322.61 3494.58 322.868 3495.06 323.505 3500.54C324.17 3506.28 324.296 3506.49 327.095 3506.49C329.745 3506.49 329.998 3506.79 329.998 3509.99C329.998 3513.18 330.25 3513.49 332.9 3513.49C335.702 3513.49 335.825 3513.69 336.498 3519.49C337.171 3525.28 337.293 3525.49 340.095 3525.49C342.745 3525.49 342.998 3525.79 342.998 3528.99C342.998 3532.21 343.236 3532.49 345.998 3532.49C348.998 3532.49 348.998 3532.49 348.998 3538.49C348.998 3544.49 348.998 3544.49 351.998 3544.49C354.65 3544.49 354.998 3544.83 354.998 3547.42C354.998 3550.01 355.39 3550.4 358.248 3550.67C361.106 3550.95 361.536 3551.38 361.811 3554.24C362.087 3557.09 362.479 3557.49 365.061 3557.49C367.984 3557.49 367.998 3557.52 367.998 3563.49C367.998 3569.49 367.998 3569.49 370.998 3569.49C373.76 3569.49 373.998 3569.76 373.998 3572.99C373.998 3576.32 374.165 3576.49 377.498 3576.49C380.72 3576.49 380.998 3576.72 380.998 3579.49C380.998 3582.15 381.331 3582.49 383.998 3582.49C386.998 3582.49 386.998 3582.49 386.998 3588.99C386.998 3595.49 386.998 3595.49 389.998 3595.49C392.665 3595.49 392.998 3595.82 392.998 3598.49C392.998 3601.25 393.276 3601.49 396.498 3601.49C399.831 3601.49 399.998 3601.65 399.998 3604.99C399.998 3608.21 400.236 3608.49 402.998 3608.49C405.665 3608.49 405.998 3608.82 405.998 3611.49C405.998 3614.13 406.342 3614.49 408.9 3614.49C411.702 3614.49 411.825 3614.69 412.498 3620.49C413.171 3626.28 413.293 3626.49 416.095 3626.49C418.745 3626.49 418.998 3626.79 418.998 3629.99C418.998 3633.21 419.236 3633.49 421.998 3633.49C424.665 3633.49 424.998 3633.82 424.998 3636.49C424.998 3639.14 425.338 3639.49 427.935 3639.49C430.517 3639.49 430.909 3639.88 431.185 3642.74C431.46 3645.59 431.89 3646.02 434.748 3646.3C437.998 3646.61 437.998 3646.61 437.998 3652.55C437.998 3658.48 438.002 3658.49 440.998 3658.49C443.65 3658.49 443.998 3658.83 443.998 3661.42C443.998 3664.01 444.39 3664.4 447.248 3664.67C450.106 3664.95 450.536 3665.38 450.811 3668.24C451.087 3671.09 451.479 3671.49 454.061 3671.49C456.658 3671.49 456.998 3671.83 456.998 3674.49C456.998 3677.15 457.331 3677.49 459.998 3677.49C462.76 3677.49 462.998 3677.76 462.998 3680.99C462.998 3684.21 463.236 3684.49 465.998 3684.49C468.665 3684.49 468.998 3684.82 468.998 3687.49C468.998 3690.25 469.276 3690.49 472.498 3690.49C475.831 3690.49 475.998 3690.65 475.998 3693.99C475.998 3697.21 476.236 3697.49 478.998 3697.49C481.665 3697.49 481.998 3697.82 481.998 3700.49C481.998 3703.13 482.342 3703.49 484.9 3703.49C487.702 3703.49 487.825 3703.69 488.498 3709.49C489.171 3715.28 489.293 3715.49 492.095 3715.49C494.639 3715.49 494.998 3715.85 494.998 3718.42C494.998 3721.01 495.39 3721.4 498.248 3721.67C501.106 3721.95 501.536 3722.38 501.811 3725.24C502.087 3728.09 502.479 3728.49 505.061 3728.49C507.658 3728.49 507.998 3728.83 507.998 3731.49C507.998 3734.15 508.331 3734.49 510.998 3734.49C513.65 3734.49 513.998 3734.83 513.998 3737.42C513.998 3740.01 514.39 3740.4 517.248 3740.67C520.106 3740.95 520.536 3741.38 520.811 3744.24C521.087 3747.09 521.479 3747.49 524.061 3747.49C526.658 3747.49 526.998 3747.83 526.998 3750.49C526.998 3753.15 527.331 3753.49 529.998 3753.49C532.76 3753.49 532.998 3753.76 532.998 3756.99C532.998 3760.21 533.236 3760.49 535.998 3760.49C538.665 3760.49 538.998 3760.82 538.998 3763.49C538.998 3766.25 539.276 3766.49 542.498 3766.49C545.72 3766.49 545.998 3766.72 545.998 3769.49C545.998 3772.15 546.331 3772.49 548.998 3772.49C551.76 3772.49 551.998 3772.76 551.998 3775.99C551.998 3779.32 552.165 3779.49 555.498 3779.49C558.72 3779.49 558.998 3779.72 558.998 3782.49C558.998 3785.15 559.331 3785.49 561.998 3785.49C564.665 3785.49 564.998 3785.82 564.998 3788.49C564.998 3791.15 565.331 3791.49 567.998 3791.49C570.65 3791.49 570.998 3791.83 570.998 3794.42C570.998 3797.01 571.39 3797.4 574.248 3797.67C577.106 3797.95 577.536 3798.38 577.811 3801.24C578.087 3804.09 578.479 3804.49 581.061 3804.49C583.658 3804.49 583.998 3804.83 583.998 3807.49C583.998 3810.15 584.331 3810.49 586.998 3810.49C589.65 3810.49 589.998 3810.83 589.998 3813.42C589.998 3816.01 590.39 3816.4 593.248 3816.67C596.106 3816.95 596.536 3817.38 596.811 3820.24C597.125 3823.49 597.125 3823.49 603.061 3823.49C608.998 3823.49 608.998 3823.49 608.998 3826.99C608.998 3830.21 609.236 3830.49 611.998 3830.49C614.665 3830.49 614.998 3830.82 614.998 3833.49C614.998 3836.25 615.276 3836.49 618.498 3836.49C621.72 3836.49 621.998 3836.72 621.998 3839.49C621.998 3842.15 622.331 3842.49 624.998 3842.49C627.76 3842.49 627.998 3842.76 627.998 3845.99C627.998 3849.21 628.236 3849.49 630.998 3849.49C633.665 3849.49 633.998 3849.82 633.998 3852.49C633.998 3855.25 634.276 3855.49 637.498 3855.49C640.72 3855.49 640.998 3855.72 640.998 3858.49C640.998 3861.15 641.331 3861.49 643.998 3861.49C646.642 3861.49 646.998 3861.83 646.998 3864.39C646.998 3867.19 647.203 3867.31 652.998 3867.99C658.793 3868.66 658.998 3868.78 658.998 3871.58C658.998 3874.23 659.302 3874.49 662.498 3874.49C665.72 3874.49 665.998 3874.72 665.998 3877.49C665.998 3880.15 666.331 3880.49 668.998 3880.49C671.65 3880.49 671.998 3880.83 671.998 3883.42C671.998 3886.01 672.39 3886.4 675.248 3886.67C678.106 3886.95 678.536 3887.38 678.811 3890.24C679.087 3893.09 679.479 3893.49 682.061 3893.49C684.628 3893.49 684.998 3893.85 684.998 3896.36C684.998 3899.12 685.22 3899.25 690.936 3899.9C696.45 3900.52 696.896 3900.76 697.186 3903.28C697.445 3905.52 698.054 3906.04 700.748 3906.3C703.606 3906.58 703.998 3906.97 703.998 3909.55C703.998 3912.15 704.346 3912.49 706.998 3912.49C709.665 3912.49 709.998 3912.82 709.998 3915.49C709.998 3918.25 710.276 3918.49 713.498 3918.49C716.694 3918.49 716.998 3918.74 716.998 3921.39C716.998 3924.19 717.203 3924.31 722.998 3924.99C728.793 3925.66 728.998 3925.78 728.998 3928.58C728.998 3931.23 729.302 3931.49 732.498 3931.49C735.72 3931.49 735.998 3931.72 735.998 3934.49C735.998 3937.15 736.331 3937.49 738.998 3937.49C741.642 3937.49 741.998 3937.83 741.998 3940.39C741.998 3943.19 742.207 3943.31 747.939 3943.98C753.423 3944.62 753.906 3944.87 754.189 3947.33C754.443 3949.52 755.071 3950.04 757.748 3950.3C760.606 3950.58 760.998 3950.97 760.998 3953.55C760.998 3956.24 761.293 3956.49 764.498 3956.49C767.694 3956.49 767.998 3956.74 767.998 3959.39C767.998 3962.19 768.203 3962.31 773.998 3962.99C779.793 3963.66 779.998 3963.78 779.998 3966.58C779.998 3969.23 780.302 3969.49 783.498 3969.49C786.72 3969.49 786.998 3969.72 786.998 3972.49C786.998 3975.15 787.331 3975.49 789.998 3975.49C792.642 3975.49 792.998 3975.83 792.998 3978.39C792.998 3981.19 793.203 3981.31 798.998 3981.99C804.793 3982.66 804.998 3982.78 804.998 3985.58C804.998 3988.23 805.302 3988.49 808.498 3988.49C811.685 3988.49 811.998 3988.74 811.998 3991.36C811.998 3994.12 812.22 3994.25 817.936 3994.9C823.45 3995.52 823.896 3995.76 824.186 3998.28C824.445 4000.52 825.054 4001.04 827.748 4001.3C830.606 4001.58 830.998 4001.97 830.998 4004.55C830.998 4007.49 830.998 4007.49 837.498 4007.49C843.998 4007.49 843.998 4007.49 843.998 4010.49C843.998 4013.15 844.331 4013.49 846.998 4013.49C849.646 4013.49 849.998 4013.83 849.998 4016.41C849.998 4019.26 850.141 4019.34 856.498 4020.02C862.834 4020.7 862.998 4020.79 862.998 4023.6C862.998 4026.14 863.358 4026.49 865.998 4026.49C868.654 4026.49 868.998 4026.83 868.998 4029.44C868.998 4032.36 869.06 4032.39 875.248 4032.69C881.498 4032.99 881.498 4032.99 881.811 4036.24C882.087 4039.09 882.479 4039.49 885.061 4039.49C887.658 4039.49 887.998 4039.83 887.998 4042.49C887.998 4045.49 887.998 4045.49 894.498 4045.49C900.998 4045.49 900.998 4045.49 900.998 4048.39C900.998 4051.19 901.203 4051.31 906.998 4051.99C912.793 4052.66 912.998 4052.78 912.998 4055.58C912.998 4058.23 913.302 4058.49 916.498 4058.49C919.708 4058.49 919.998 4058.73 919.998 4061.44C919.998 4064.36 920.06 4064.39 926.248 4064.69C932.182 4064.97 932.514 4065.12 932.806 4067.64C933.089 4070.1 933.572 4070.36 939.056 4070.99C944.788 4071.66 944.998 4071.79 944.998 4074.58C944.998 4077.23 945.302 4077.49 948.498 4077.49C951.72 4077.49 951.998 4077.72 951.998 4080.49C951.998 4083.49 951.998 4083.49 957.998 4083.49C963.976 4083.49 963.998 4083.5 963.998 4086.44C963.998 4089.36 964.06 4089.39 970.248 4089.69C976.498 4089.99 976.498 4089.99 976.811 4093.24C977.125 4096.49 977.125 4096.49 983.061 4096.49C988.991 4096.49 988.998 4096.49 988.998 4099.49C988.998 4102.49 988.998 4102.49 995.435 4102.49C1001.87 4102.49 1001.87 4102.49 1002.18 4105.74C1002.46 4108.59 1002.89 4109.02 1005.75 4109.3C1008.4 4109.56 1009 4110.04 1009 4111.95C1009 4114.07 1009.57 4114.36 1015 4114.99C1020.79 4115.66 1021 4115.78 1021 4118.58C1021 4121.49 1021 4121.49 1027.5 4121.49C1034 4121.49 1034 4121.49 1034 4124.41C1034 4127.26 1034.14 4127.34 1040.5 4128.02C1046.83 4128.7 1047 4128.79 1047 4131.6C1047 4134.46 1047.05 4134.49 1053 4134.49C1059 4134.49 1059 4134.49 1059 4137.49C1059 4140.49 1059 4140.49 1065.5 4140.49C1072 4140.49 1072 4140.49 1072 4143.41C1072 4146.26 1072.14 4146.34 1078.5 4147.02C1084.83 4147.7 1085 4147.79 1085 4150.6C1085 4153.46 1085.05 4153.49 1091 4153.49C1097 4153.49 1097 4153.49 1097 4156.49C1097 4159.49 1097 4159.49 1103.5 4159.49C1110 4159.49 1110 4159.49 1110 4162.41C1110 4165.26 1110.14 4165.34 1116.5 4166.02C1122.83 4166.7 1123 4166.79 1123 4169.6C1123 4172.49 1123 4172.49 1132 4172.49C1141 4172.49 1141 4172.49 1141 4175.37C1141 4178.18 1141.16 4178.27 1147.5 4178.95C1153.42 4179.58 1154 4179.85 1154 4181.95C1154 4184.05 1154.58 4184.32 1160.5 4184.95C1166.85 4185.63 1167 4185.71 1167 4188.57C1167 4191.49 1167 4191.49 1173.5 4191.49C1180 4191.49 1180 4191.49 1180 4194.49C1180 4197.44 1180.08 4197.49 1185.25 4197.5C1194.88 4197.52 1197.85 4198.4 1198.19 4201.36C1198.48 4203.87 1198.79 4204 1205.25 4204.28C1211.99 4204.58 1212 4204.58 1212 4207.53C1212 4210.49 1212 4210.49 1221 4210.49C1230 4210.49 1230 4210.49 1230 4213.49C1230 4216.49 1230 4216.49 1236.5 4216.49C1242.98 4216.49 1243 4216.49 1243 4219.35C1243 4222.51 1246.33 4223.49 1257.14 4223.49C1261.87 4223.49 1262 4223.56 1262 4226.49C1262 4229.49 1262 4229.49 1268.5 4229.49C1275 4229.49 1275 4229.49 1275 4232.45C1275 4235.41 1275 4235.41 1284.25 4235.7C1293.4 4235.98 1293.5 4236.01 1293.8 4238.61C1294.14 4241.49 1297.83 4242.49 1308.14 4242.49C1312.87 4242.49 1313 4242.56 1313 4245.49C1313 4248.49 1313 4248.49 1322.5 4248.49C1332 4248.49 1332 4248.49 1332 4251.49C1332 4254.41 1332.12 4254.49 1336.86 4254.49C1346.76 4254.49 1351 4255.53 1351 4257.99C1351 4260.44 1355.23 4261.49 1365.14 4261.49C1369.87 4261.49 1370 4261.56 1370 4264.49C1370 4267.49 1370 4267.49 1379.5 4267.49C1389 4267.49 1389 4267.49 1389 4270.49C1389 4273.41 1389.12 4273.49 1393.86 4273.49C1403.76 4273.49 1408 4274.53 1408 4276.99C1408 4279.62 1412.23 4280.49 1425.14 4280.49C1433 4280.49 1433 4280.49 1433 4283.49C1433 4286.49 1433 4286.49 1442.5 4286.49C1452 4286.49 1452 4286.49 1452 4289.49C1452 4292.49 1452 4292.49 1459.75 4292.5C1473.32 4292.51 1478 4293.41 1478 4295.99C1478 4298.62 1482.24 4299.49 1495.14 4299.49C1503 4299.49 1503 4299.49 1503 4302.49C1503 4305.49 1503 4305.49 1516 4305.49C1529 4305.49 1529 4305.49 1529 4308.49C1529 4311.49 1529 4311.49 1535.34 4311.49C1553.62 4311.49 1560 4312.56 1560 4315.64C1560 4318.49 1560 4318.49 1573 4318.49C1586 4318.49 1586 4318.49 1586 4321.49C1586 4324.49 1586 4324.49 1604.5 4324.49C1623 4324.49 1623 4324.49 1623 4327.49C1623 4330.49 1623 4330.49 1632.84 4330.49C1652.91 4330.49 1661 4331.49 1661 4334C1661 4336.89 1665.6 4337.47 1688.75 4337.48C1706 4337.49 1706 4337.49 1706 4340.49C1706 4343.49 1706 4343.49 1732.75 4343.5C1765.64 4343.51 1770 4343.91 1770 4346.98C1770 4349.83 1864.77 4351.13 1985.5 4349.94C2061 4349.2 2061 4349.2 2061 4346.98C2061 4343.83 2064.79 4343.49 2100.14 4343.49C2130 4343.49 2130 4343.49 2130 4340.49C2130 4337.49 2130 4337.49 2146.34 4337.49C2172.87 4337.49 2181 4336.67 2181 4333.99C2181 4331.52 2189.53 4330.5 2210.25 4330.49C2220 4330.49 2220 4330.49 2220 4327.49C2220 4324.49 2220 4324.49 2239 4324.49C2258 4324.49 2258 4324.49 2258 4321.49C2258 4318.49 2258 4318.49 2268.86 4318.49C2284.76 4318.49 2289 4317.75 2289 4315C2289 4312.65 2297.42 4311.51 2314.75 4311.49C2321 4311.49 2321 4311.49 2321 4308.49C2321 4305.49 2321 4305.49 2334 4305.49C2347 4305.49 2347 4305.49 2347 4302.49C2347 4299.49 2347 4299.49 2353.34 4299.49C2369.96 4299.49 2378 4298.34 2378 4295.97C2378 4293.35 2382.26 4292.49 2395.14 4292.49C2403 4292.49 2403 4292.49 2403 4289.49C2403 4286.49 2403 4286.49 2413 4286.49C2423 4286.49 2423 4286.49 2423 4283.49C2423 4280.49 2423 4280.49 2430.25 4280.48C2443.32 4280.46 2448 4279.54 2448 4276.98C2448 4274.53 2452.24 4273.49 2462.14 4273.49C2466.87 4273.49 2467 4273.41 2467 4270.49C2467 4267.49 2467 4267.49 2476.5 4267.49C2486 4267.49 2486 4267.49 2486 4264.61C2486 4261.73 2486 4261.73 2498.5 4261.01C2511 4260.29 2511 4260.29 2511 4257.39C2511 4254.49 2511 4254.49 2520.5 4254.49C2530 4254.49 2530 4254.49 2530 4251.49C2530 4248.49 2530 4248.49 2536.5 4248.49C2543 4248.49 2543 4248.49 2543 4245.49C2543 4242.56 2543.12 4242.49 2547.86 4242.49C2557.76 4242.49 2562 4241.44 2562 4238.99C2562 4236.53 2566.23 4235.49 2576.14 4235.49C2580.87 4235.49 2581 4235.41 2581 4232.49C2581 4229.56 2581.12 4229.49 2585.86 4229.49C2595.8 4229.49 2600 4228.44 2600 4225.97C2600 4223.94 2600.63 4223.65 2606.5 4223.02C2612.85 4222.34 2613 4222.26 2613 4219.41C2613 4216.49 2613 4216.49 2622 4216.49C2631 4216.49 2631 4216.49 2631 4213.49C2631 4210.49 2631 4210.49 2637.5 4210.49C2644 4210.49 2644 4210.49 2644 4207.49C2644 4204.56 2644.12 4204.49 2648.86 4204.49C2659.67 4204.49 2663 4203.51 2663 4200.35C2663 4197.49 2663.01 4197.49 2669.5 4197.49C2676 4197.49 2676 4197.49 2676 4194.49C2676 4191.49 2676 4191.49 2682.5 4191.49C2689 4191.49 2689 4191.49 2689 4188.57C2689 4185.71 2689.14 4185.63 2695.5 4184.95C2701.36 4184.32 2702 4184.03 2702 4182.01C2702 4179.57 2706.2 4178.49 2715.64 4178.49C2719.78 4178.49 2720 4178.34 2720 4175.6C2720 4172.79 2720.16 4172.7 2726.5 4172.02C2732.45 4171.39 2733 4171.13 2733 4168.99C2733 4166.84 2733.55 4166.59 2739.5 4165.95C2745.83 4165.27 2746 4165.18 2746 4162.37C2746 4159.51 2746.05 4159.49 2752 4159.49C2758 4159.49 2758 4159.49 2758 4156.49C2758 4153.49 2758 4153.49 2764.5 4153.49C2771 4153.49 2771 4153.49 2771 4150.57C2771 4147.71 2771.14 4147.63 2777.5 4146.95C2783.83 4146.27 2784 4146.18 2784 4143.37C2784 4140.51 2784.05 4140.49 2790 4140.49C2795.94 4140.49 2796 4140.46 2796 4137.6C2796 4134.79 2796.16 4134.7 2802.5 4134.02C2808.43 4133.39 2809 4133.13 2809 4131.01C2809 4128.91 2809.59 4128.61 2814.94 4127.99C2820.42 4127.36 2820.91 4127.1 2821.19 4124.64C2821.45 4122.36 2822.03 4121.94 2825.25 4121.68C2828.66 4121.39 2829 4121.1 2829 4118.43C2829 4115.5 2829.02 4115.49 2835 4115.49C2840.96 4115.49 2841 4115.47 2841 4112.57C2841 4109.71 2841.14 4109.63 2847.5 4108.95C2853.83 4108.27 2854 4108.18 2854 4105.37C2854 4102.51 2854.05 4102.49 2860 4102.49C2866 4102.49 2866 4102.49 2866 4099.49C2866 4096.72 2866.28 4096.49 2869.5 4096.49C2872.69 4096.49 2873 4096.23 2873 4093.58C2873 4090.79 2873.21 4090.66 2878.94 4089.99C2884.42 4089.36 2884.91 4089.1 2885.19 4086.64C2885.48 4084.12 2885.81 4083.97 2891.75 4083.69C2897.9 4083.4 2898 4083.35 2898 4080.5C2898 4077.97 2898.4 4077.57 2901.25 4077.3C2903.92 4077.04 2904.55 4076.52 2904.81 4074.33C2905.09 4071.87 2905.57 4071.62 2911.06 4070.98C2916.79 4070.31 2917 4070.19 2917 4067.39C2917 4064.51 2917.04 4064.49 2923 4064.49C2929 4064.49 2929 4064.49 2929 4061.49C2929 4058.72 2929.28 4058.49 2932.5 4058.49C2935.7 4058.49 2936 4058.24 2936 4055.57C2936 4052.71 2936.14 4052.63 2942.5 4051.95C2948.83 4051.27 2949 4051.18 2949 4048.37C2949 4045.74 2949.31 4045.49 2952.5 4045.49C2955.71 4045.49 2956 4045.24 2956 4042.54C2956 4039.65 2956.11 4039.58 2961.75 4039.29C2967.43 4038.99 2967.5 4038.95 2967.81 4035.74C2968.1 4032.76 2968.41 4032.49 2971.56 4032.49C2974.71 4032.49 2975 4032.24 2975 4029.49C2975 4026.49 2975 4026.49 2981 4026.49C2987 4026.49 2987 4026.49 2987 4023.49C2987 4020.82 2987.33 4020.49 2990 4020.49C2992.64 4020.49 2993 4020.14 2993 4017.58C2993 4014.78 2993.2 4014.66 2999 4013.99C3004.79 4013.31 3005 4013.19 3005 4010.39C3005 4007.74 3005.3 4007.49 3008.5 4007.49C3011.69 4007.49 3012 4007.23 3012 4004.6C3012 4001.79 3012.16 4001.7 3018.5 4001.02C3024.85 4000.34 3025 4000.26 3025 3997.41C3025 3994.83 3025.35 3994.49 3028 3994.49C3030.66 3994.49 3031 3994.15 3031 3991.49C3031 3988.72 3031.28 3988.49 3034.5 3988.49C3037.69 3988.49 3038 3988.23 3038 3985.58C3038 3982.78 3038.2 3982.66 3044 3981.99C3049.79 3981.31 3050 3981.19 3050 3978.39C3050 3975.74 3050.3 3975.49 3053.5 3975.49C3056.72 3975.49 3057 3975.25 3057 3972.49C3057 3969.82 3057.33 3969.49 3060 3969.49C3062.64 3969.49 3063 3969.14 3063 3966.58C3063 3963.78 3063.2 3963.66 3069 3962.99C3074.79 3962.31 3075 3962.19 3075 3959.39C3075 3956.74 3075.3 3956.49 3078.5 3956.49C3081.72 3956.49 3082 3956.25 3082 3953.49C3082 3950.82 3082.33 3950.49 3085 3950.49C3087.63 3950.49 3088 3950.14 3088 3947.62C3088 3944.85 3088.22 3944.72 3093.94 3944.07C3099.45 3943.45 3099.9 3943.21 3100.19 3940.69C3100.44 3938.45 3101.05 3937.93 3103.75 3937.67C3106.61 3937.4 3107 3937.01 3107 3934.42C3107 3931.73 3107.29 3931.49 3110.5 3931.49C3113.72 3931.49 3114 3931.25 3114 3928.49C3114 3925.82 3114.33 3925.49 3117 3925.49C3119.76 3925.49 3120 3925.21 3120 3921.99C3120 3918.49 3120 3918.49 3126 3918.49C3132 3918.49 3132 3918.49 3132 3915.49C3132 3912.72 3132.28 3912.49 3135.5 3912.49C3138.83 3912.49 3139 3912.32 3139 3908.99C3139 3905.76 3139.24 3905.49 3142 3905.49C3144.66 3905.49 3145 3905.15 3145 3902.49C3145 3899.72 3145.28 3899.49 3148.5 3899.49C3151.72 3899.49 3152 3899.25 3152 3896.49C3152 3893.82 3152.33 3893.49 3155 3893.49C3157.65 3893.49 3158 3893.15 3158 3890.55C3158 3887.97 3158.39 3887.58 3161.25 3887.3C3163.94 3887.04 3164.55 3886.52 3164.81 3884.28C3165.1 3881.76 3165.55 3881.52 3171.06 3880.9C3176.78 3880.25 3177 3880.12 3177 3877.36C3177 3874.85 3177.37 3874.49 3179.93 3874.49C3182.52 3874.49 3182.91 3874.09 3183.18 3871.24C3183.46 3868.38 3183.89 3867.95 3186.75 3867.67C3189.61 3867.4 3190 3867.01 3190 3864.42C3190 3861.83 3190.35 3861.49 3193 3861.49C3195.66 3861.49 3196 3861.15 3196 3858.49C3196 3855.82 3196.33 3855.49 3199 3855.49C3201.65 3855.49 3202 3855.15 3202 3852.55C3202 3849.97 3202.39 3849.58 3205.25 3849.3C3208.11 3849.02 3208.54 3848.59 3208.81 3845.74C3209.09 3842.88 3209.48 3842.49 3212.06 3842.49C3214.66 3842.49 3215 3842.14 3215 3839.49C3215 3836.82 3215.33 3836.49 3218 3836.49C3220.65 3836.49 3221 3836.15 3221 3833.55C3221 3830.97 3221.39 3830.58 3224.25 3830.3C3227.11 3830.02 3227.54 3829.59 3227.81 3826.74C3228.09 3823.88 3228.48 3823.49 3231.06 3823.49C3233.64 3823.49 3234 3823.13 3234 3820.55C3234 3817.97 3234.39 3817.58 3237.25 3817.3C3239.96 3817.04 3240.55 3816.53 3240.81 3814.24C3241.08 3811.93 3241.61 3811.49 3244.06 3811.49C3246.75 3811.49 3247 3811.19 3247 3807.99C3247 3804.76 3247.24 3804.49 3250 3804.49C3252.66 3804.49 3253 3804.15 3253 3801.49C3253 3798.72 3253.28 3798.49 3256.5 3798.49C3259.72 3798.49 3260 3798.25 3260 3795.49C3260 3792.82 3260.33 3792.49 3263 3792.49C3265.76 3792.49 3266 3792.21 3266 3788.99C3266 3785.76 3266.24 3785.49 3269 3785.49C3271.66 3785.49 3272 3785.15 3272 3782.49C3272 3779.72 3272.28 3779.49 3275.5 3779.49C3278.72 3779.49 3279 3779.25 3279 3776.49C3279 3773.82 3279.33 3773.49 3282 3773.49C3284.76 3773.49 3285 3773.21 3285 3769.99C3285 3766.76 3285.24 3766.49 3288 3766.49C3290.65 3766.49 3291 3766.15 3291 3763.55C3291 3760.97 3291.39 3760.58 3294.25 3760.3C3297.11 3760.02 3297.54 3759.59 3297.81 3756.74C3298.09 3753.88 3298.48 3753.49 3301.06 3753.49C3303.66 3753.49 3304 3753.14 3304 3750.49C3304 3747.82 3304.33 3747.49 3307 3747.49C3309.65 3747.49 3310 3747.15 3310 3744.55C3310 3741.97 3310.39 3741.58 3313.25 3741.3C3316.11 3741.02 3316.54 3740.59 3316.81 3737.74C3317.09 3734.88 3317.48 3734.49 3320.06 3734.49C3322.66 3734.49 3323 3734.14 3323 3731.49C3323 3728.83 3323.34 3728.49 3325.93 3728.49C3328.52 3728.49 3328.91 3728.09 3329.18 3725.24C3329.44 3722.55 3329.96 3721.93 3332.19 3721.68C3334.27 3721.44 3334.95 3720.75 3335.19 3718.68C3335.43 3716.58 3336.1 3715.92 3338.25 3715.67C3340.55 3715.41 3341 3714.88 3341 3712.42C3341 3709.76 3341.31 3709.49 3344.37 3709.49C3347.74 3709.49 3347.74 3709.49 3348.41 3703.55C3349.03 3698.03 3349.28 3697.59 3351.79 3697.3C3354.03 3697.04 3354.55 3696.43 3354.81 3693.74C3355.09 3690.88 3355.48 3690.49 3358.06 3690.49C3360.66 3690.49 3361 3690.14 3361 3687.49C3361 3684.82 3361.33 3684.49 3364 3684.49C3366.76 3684.49 3367 3684.21 3367 3680.99C3367 3677.65 3367.16 3677.49 3370.5 3677.49C3373.7 3677.49 3374 3677.24 3374 3674.55C3374 3672.1 3374.44 3671.57 3376.75 3671.3C3379.04 3671.04 3379.55 3670.44 3379.81 3667.74C3380.09 3664.88 3380.48 3664.49 3383.06 3664.49C3385.98 3664.49 3386 3664.46 3386 3658.49C3386 3652.49 3386 3652.49 3389.5 3652.49C3392.72 3652.49 3393 3652.25 3393 3649.49C3393 3646.82 3393.33 3646.49 3396 3646.49C3398.76 3646.49 3399 3646.21 3399 3642.99C3399 3639.78 3399.24 3639.49 3401.93 3639.49C3404.52 3639.49 3404.91 3639.09 3405.18 3636.24C3405.44 3633.54 3405.96 3632.93 3408.2 3632.67C3410.72 3632.38 3410.96 3631.94 3411.58 3626.42C3412.23 3620.71 3412.36 3620.49 3415.13 3620.49C3417.65 3620.49 3418 3620.12 3418 3617.49C3418 3614.82 3418.33 3614.49 3421 3614.49C3423.76 3614.49 3424 3614.21 3424 3610.99C3424 3607.79 3424.25 3607.49 3426.9 3607.49C3429.7 3607.49 3429.82 3607.28 3430.5 3601.49C3431.17 3595.69 3431.29 3595.49 3434.1 3595.49C3436.65 3595.49 3437 3595.13 3437 3592.49C3437 3589.82 3437.33 3589.49 3440 3589.49C3442.76 3589.49 3443 3589.21 3443 3585.99C3443 3582.79 3443.25 3582.49 3445.9 3582.49C3448.7 3582.49 3448.82 3582.28 3449.5 3576.49C3450.17 3570.69 3450.29 3570.49 3453.1 3570.49C3455.75 3570.49 3456 3570.18 3456 3566.99C3456 3563.78 3456.24 3563.49 3458.93 3563.49C3461.52 3563.49 3461.91 3563.09 3462.18 3560.24C3462.44 3557.54 3462.96 3556.93 3465.2 3556.67C3467.72 3556.38 3467.96 3555.94 3468.58 3550.42C3469.23 3544.71 3469.36 3544.49 3472.13 3544.49C3474.74 3544.49 3475 3544.17 3475 3540.99C3475 3537.79 3475.25 3537.49 3477.9 3537.49C3480.7 3537.49 3480.82 3537.28 3481.5 3531.49C3482.17 3525.69 3482.29 3525.49 3485.1 3525.49C3487.65 3525.49 3488 3525.13 3488 3522.49C3488 3519.82 3488.33 3519.49 3491 3519.49C3494 3519.49 3494 3519.49 3494 3512.99C3494 3506.49 3494 3506.49 3497 3506.49C3499.66 3506.49 3500 3506.15 3500 3503.49C3500 3500.84 3500.34 3500.49 3502.92 3500.49C3505.77 3500.49 3505.85 3500.34 3506.53 3493.99C3507.21 3487.65 3507.3 3487.49 3510.11 3487.49C3512.65 3487.49 3513 3487.13 3513 3484.49C3513 3481.85 3513.34 3481.49 3515.88 3481.49C3518.69 3481.49 3518.78 3481.32 3519.46 3474.99C3520.14 3468.63 3520.22 3468.49 3523.08 3468.49C3525.75 3468.49 3526 3468.19 3526 3464.99C3526 3461.76 3526.24 3461.49 3529 3461.49C3532 3461.49 3532 3461.49 3532 3455.49C3532 3449.53 3532.02 3449.49 3534.9 3449.49C3537.7 3449.49 3537.83 3449.28 3538.49 3443.54C3539.13 3438.06 3539.39 3437.58 3541.84 3437.29C3544.03 3437.04 3544.55 3436.41 3544.81 3433.74C3545.09 3430.88 3545.48 3430.49 3548.06 3430.49C3551 3430.49 3551 3430.49 3551 3423.99C3551 3417.49 3551 3417.49 3553.9 3417.49C3556.7 3417.49 3556.82 3417.28 3557.5 3411.49C3558.17 3405.69 3558.29 3405.49 3561.1 3405.49C3563.75 3405.49 3564 3405.18 3564 3401.99C3564 3398.78 3564.24 3398.49 3566.95 3398.49C3569.87 3398.49 3569.91 3398.42 3570.2 3392.24C3570.48 3386.3 3570.63 3385.97 3573.16 3385.68C3575.61 3385.4 3575.87 3384.91 3576.5 3379.43C3577.17 3373.7 3577.3 3373.49 3580.1 3373.49C3582.98 3373.49 3583 3373.44 3583 3367.49C3583 3361.49 3583 3361.49 3586 3361.49C3589 3361.49 3589 3361.49 3589 3354.99C3589 3348.49 3589 3348.49 3591.93 3348.49C3594.52 3348.49 3594.91 3348.09 3595.18 3345.24C3595.44 3342.55 3595.96 3341.93 3598.17 3341.68C3600.68 3341.39 3600.89 3340.96 3601.54 3334.93C3602.21 3328.65 3602.31 3328.49 3605.11 3328.49C3607.97 3328.49 3608 3328.43 3608 3322.49C3608 3316.54 3608.02 3316.49 3610.88 3316.49C3613.69 3316.49 3613.78 3316.32 3614.46 3309.99C3615.14 3303.63 3615.22 3303.49 3618.08 3303.49C3621 3303.49 3621 3303.49 3621 3296.99C3621 3290.49 3621 3290.49 3623.95 3290.49C3626.87 3290.49 3626.91 3290.42 3627.2 3284.24C3627.48 3278.33 3627.64 3277.97 3630.12 3277.68C3632.96 3277.35 3634 3273.65 3634 3263.85C3634 3259.67 3634.12 3259.49 3637 3259.49C3640 3259.49 3640 3259.49 3640 3252.99C3640 3246.5 3640 3246.49 3642.87 3246.49C3645.64 3246.49 3645.76 3246.27 3646.42 3240.49C3647.04 3235.03 3647.31 3234.49 3649.47 3234.49C3651.65 3234.49 3651.89 3233.96 3652.53 3228.04C3653.17 3222.03 3653.39 3221.58 3655.86 3221.29C3658.36 3221 3658.51 3220.66 3658.8 3214.74C3659.09 3208.55 3659.12 3208.49 3662.05 3208.49C3664.91 3208.49 3665 3208.34 3665 3203.63C3665 3192.82 3665.97 3189.49 3669.13 3189.49C3671.99 3189.49 3672 3189.47 3672 3182.99C3672 3176.49 3672 3176.49 3675 3176.49C3678 3176.49 3678 3176.49 3678 3167.49C3678 3158.49 3678 3158.49 3680.95 3158.49C3683.9 3158.49 3683.91 3158.48 3684.2 3151.74C3684.48 3145.29 3684.61 3144.97 3687.12 3144.68C3689.96 3144.35 3691 3140.65 3691 3130.85C3691 3126.67 3691.12 3126.49 3694 3126.49C3697 3126.49 3697 3126.49 3697 3119.99C3697 3113.49 3697 3113.49 3700 3113.49C3703 3113.49 3703 3113.49 3703 3103.99C3703 3094.49 3703 3094.49 3705.86 3094.49C3709.02 3094.49 3710 3091.16 3710 3080.35C3710 3075.61 3710.08 3075.49 3713 3075.49C3716 3075.49 3716 3075.49 3716 3065.99C3716 3056.49 3716 3056.49 3719 3056.49C3721.86 3056.49 3722 3056.29 3722.01 3052.24C3722.03 3042.13 3723.13 3037.49 3725.5 3037.49C3727.95 3037.49 3729 3033.25 3729 3023.35C3729 3018.61 3729.08 3018.49 3732 3018.49C3735 3018.49 3735 3018.49 3735 3008.99C3735 2999.49 3735 2999.49 3737.88 2999.49C3740.76 2999.49 3740.76 2999.49 3741.48 2986.99C3742.18 2974.88 3742.27 2974.49 3744.46 2974.49C3746.99 2974.49 3748 2970.31 3748 2959.85C3748 2954.56 3748.04 2954.49 3751 2954.49C3754 2954.49 3754 2954.49 3754 2941.99C3754 2929.49 3754 2929.49 3756.88 2929.49C3759.76 2929.49 3759.76 2929.49 3760.47 2917.04C3761.19 2904.6 3761.19 2904.6 3763.84 2904.29C3766.5 2903.99 3766.5 2903.99 3766.78 2891.24C3767.06 2878.49 3767.06 2878.49 3770.03 2878.49C3773 2878.49 3773 2878.49 3773 2865.99C3773 2853.49 3773 2853.49 3776 2853.49C3779 2853.49 3779 2853.49 3779.01 2842.74C3779.02 2826.15 3779.79 2821.49 3782.5 2821.49C3785.37 2821.49 3786 2817.31 3786 2798.35C3786 2784.49 3786 2784.49 3789 2784.49C3792 2784.49 3792 2784.49 3792 2767.99C3792 2751.49 3792 2751.49 3795 2751.49C3798 2751.49 3798 2751.49 3798 2739.24C3798.01 2716.03 3798.95 2707.49 3801.5 2707.49C3804.18 2707.49 3805 2699.36 3805 2672.83C3805 2656.49 3805 2656.49 3808 2656.49C3811 2656.49 3811 2656.49 3811.01 2623.74C3811.02 2584.69 3811.36 2580.49 3814.49 2580.49C3817.14 2580.49 3818.13 2508.62 3817.21 2382.78C3816.71 2314.49 3816.71 2314.49 3814.49 2314.49C3811.34 2314.49 3811 2310.69 3811 2275.35C3811 2245.49 3811 2245.49 3808 2245.49C3805 2245.49 3805 2245.49 3804.99 2224.74C3804.98 2198.02 3804.47 2193.49 3801.51 2193.49C3798.91 2193.49 3798 2185.4 3798 2162.33C3798 2149.49 3798 2149.49 3795 2149.49C3792 2149.49 3792 2149.49 3792 2130.49C3792 2111.49 3792 2111.49 3789 2111.49C3786 2111.49 3786 2111.49 3785.99 2100.74C3785.98 2084.15 3785.21 2079.49 3782.49 2079.49C3779.73 2079.49 3779 2075.27 3779 2059.35C3779 2048.49 3779 2048.49 3776 2048.49C3773 2048.49 3773 2048.49 3773 2035.49C3773 2022.49 3773 2022.49 3770 2022.49C3767 2022.49 3767 2022.49 3767 2009.99C3767 1997.49 3767 1997.49 3764.09 1997.49C3761.18 1997.49 3761.18 1997.49 3760.46 1984.49C3759.74 1971.49 3759.74 1971.49 3756.87 1971.49C3754 1971.49 3754 1971.49 3754 1958.99C3754 1946.49 3754 1946.49 3751 1946.49C3748 1946.49 3748 1946.49 3748 1938.63C3748 1925.72 3747.13 1921.49 3744.5 1921.49C3742.05 1921.49 3741 1917.25 3741 1907.35C3741 1902.61 3740.92 1902.49 3738 1902.49C3735 1902.49 3735 1902.49 3735 1892.99C3735 1883.49 3735 1883.49 3732.12 1883.49C3729.24 1883.49 3729.24 1883.49 3728.52 1871.04C3727.8 1858.6 3727.8 1858.6 3725.15 1858.29C3722.52 1857.99 3722.5 1857.92 3722.21 1848.74C3721.92 1839.49 3721.92 1839.49 3718.96 1839.49C3716 1839.49 3716 1839.49 3716 1829.99C3716 1820.49 3716 1820.49 3713.1 1820.49C3710.24 1820.49 3710.19 1820.38 3709.5 1813.49C3708.85 1807.08 3708.6 1806.49 3706.53 1806.49C3703.96 1806.49 3703.03 1803.11 3703.01 1793.74C3703 1788.57 3702.95 1788.49 3700 1788.49C3697 1788.49 3697 1788.49 3697 1778.99C3697 1769.49 3697 1769.49 3694.11 1769.49C3691.3 1769.49 3691.21 1769.32 3690.53 1762.99C3689.9 1757.09 3689.63 1756.49 3687.55 1756.49C3685.04 1756.49 3684 1752.34 3684 1742.35C3684 1737.61 3683.92 1737.49 3681 1737.49C3678 1737.49 3678 1737.49 3678 1730.99C3678 1724.49 3678 1724.49 3675 1724.49C3672.12 1724.49 3672 1724.3 3672 1720.13C3672 1710.33 3670.96 1706.62 3668.12 1706.29C3665.64 1706 3665.48 1705.65 3665.2 1699.74C3664.91 1693.55 3664.87 1693.49 3661.95 1693.49C3659 1693.49 3659 1693.49 3659 1686.99C3659 1680.49 3659 1680.49 3656 1680.49C3653.08 1680.49 3653 1680.36 3653 1675.63C3653 1664.82 3652.02 1661.49 3648.86 1661.49C3646.03 1661.49 3646 1661.42 3646 1655.49C3646 1649.49 3646 1649.49 3643 1649.49C3640 1649.49 3640 1649.49 3640 1642.99C3640 1636.49 3640 1636.49 3637.11 1636.49C3634.31 1636.49 3634.21 1636.32 3633.54 1630.05C3632.89 1624.01 3632.68 1623.59 3630.17 1623.3C3627.63 1623 3627.48 1622.68 3627.2 1616.74C3626.91 1610.57 3626.86 1610.49 3624 1610.49C3621.13 1610.49 3621.09 1610.4 3620.8 1604.24C3620.51 1598.3 3620.36 1597.97 3617.84 1597.68C3615.39 1597.4 3615.13 1596.91 3614.49 1591.43C3613.83 1585.7 3613.7 1585.49 3610.9 1585.49C3608 1585.49 3608 1585.49 3608 1578.99C3608 1572.49 3608 1572.49 3605 1572.49C3602 1572.49 3602 1572.49 3602 1566.49C3602 1560.54 3601.97 1560.49 3599.11 1560.49C3596.3 1560.49 3596.21 1560.32 3595.53 1553.99C3594.85 1547.63 3594.77 1547.49 3591.92 1547.49C3589.02 1547.49 3589 1547.45 3589 1541.49C3589 1535.51 3588.98 1535.49 3586.06 1535.49C3583.38 1535.49 3583.09 1535.15 3582.81 1531.74C3582.54 1528.52 3582.12 1527.94 3579.84 1527.68C3577.39 1527.4 3577.13 1526.91 3576.49 1521.43C3575.83 1515.7 3575.7 1515.49 3572.9 1515.49C3570 1515.49 3570 1515.49 3570 1508.99C3570 1502.49 3570 1502.49 3567.1 1502.49C3564.3 1502.49 3564.17 1502.28 3563.5 1496.54C3562.87 1491.06 3562.61 1490.58 3560.16 1490.29C3557.97 1490.04 3557.44 1489.41 3557.18 1486.74C3556.91 1483.88 3556.52 1483.49 3553.93 1483.49C3551.01 1483.49 3551 1483.46 3551 1477.49C3551 1471.54 3550.97 1471.49 3548.11 1471.49C3545.3 1471.49 3545.21 1471.32 3544.53 1464.99C3543.85 1458.63 3543.77 1458.49 3540.92 1458.49C3538.35 1458.49 3538 1458.13 3538 1455.55C3538 1453.1 3537.55 1452.57 3535.25 1452.3C3532.61 1452 3532.49 1451.73 3532.2 1445.74C3531.91 1439.58 3531.86 1439.49 3529.01 1439.49C3526.48 1439.49 3526.09 1439.08 3525.81 1436.24C3525.55 1433.56 3525.03 1432.93 3522.84 1432.68C3520.39 1432.4 3520.13 1431.91 3519.49 1426.43C3518.83 1420.7 3518.7 1420.49 3515.9 1420.49C3513.02 1420.49 3513 1420.44 3513 1414.49C3513 1408.49 3513 1408.49 3510 1408.49C3507.24 1408.49 3507 1408.21 3507 1404.99C3507 1401.79 3506.75 1401.49 3504.1 1401.49C3501.29 1401.49 3501.17 1401.28 3500.5 1395.49C3499.82 1389.69 3499.7 1389.49 3496.9 1389.49C3494.25 1389.49 3494 1389.18 3494 1385.99C3494 1382.76 3493.76 1382.49 3491 1382.49C3488.24 1382.49 3488 1382.21 3488 1378.99C3488 1375.79 3487.75 1375.49 3485.1 1375.49C3482.29 1375.49 3482.17 1375.28 3481.5 1369.49C3480.82 1363.69 3480.7 1363.49 3477.9 1363.49C3475.25 1363.49 3475 1363.18 3475 1359.99C3475 1356.79 3474.75 1356.49 3472.1 1356.49C3469.29 1356.49 3469.17 1356.28 3468.5 1350.49C3467.82 1344.69 3467.7 1344.49 3464.9 1344.49C3462.25 1344.49 3462 1344.18 3462 1340.99C3462 1337.76 3461.76 1337.49 3459 1337.49C3456 1337.49 3456 1337.48 3456 1331.55C3456 1325.61 3456 1325.61 3452.75 1325.3C3450.06 1325.04 3449.44 1324.52 3449.19 1322.3C3448.95 1320.22 3448.27 1319.54 3446.19 1319.3C3443.96 1319.04 3443.44 1318.42 3443.18 1315.74C3442.91 1312.88 3442.52 1312.49 3439.93 1312.49C3437.01 1312.49 3437 1312.46 3437 1306.49C3437 1300.52 3436.98 1300.49 3434.06 1300.49C3431.48 1300.49 3431.09 1300.09 3430.81 1297.24C3430.54 1294.38 3430.11 1293.95 3427.25 1293.67C3424.39 1293.4 3424 1293.01 3424 1290.42C3424 1287.83 3423.65 1287.49 3421 1287.49C3418 1287.49 3418 1287.48 3418 1281.55C3418 1275.61 3418 1275.61 3414.75 1275.3C3411.89 1275.02 3411.46 1274.59 3411.18 1271.74C3410.91 1268.88 3410.52 1268.49 3407.93 1268.49C3405.24 1268.49 3405 1268.19 3405 1264.99C3405 1261.76 3404.76 1261.49 3402 1261.49C3399.33 1261.49 3399 1261.15 3399 1258.49C3399 1255.84 3398.65 1255.49 3396.1 1255.49C3393.29 1255.49 3393.17 1255.28 3392.5 1249.49C3391.82 1243.69 3391.7 1243.49 3388.9 1243.49C3386.25 1243.49 3386 1243.18 3386 1239.99C3386 1236.76 3385.76 1236.49 3383 1236.49C3380.33 1236.49 3380 1236.15 3380 1233.49C3380 1230.83 3379.66 1230.49 3377.06 1230.49C3374.48 1230.49 3374.09 1230.09 3373.81 1227.24C3373.54 1224.38 3373.11 1223.95 3370.25 1223.67C3367.39 1223.4 3367 1223.01 3367 1220.42C3367 1217.86 3366.64 1217.49 3364.13 1217.49C3361.36 1217.49 3361.23 1217.26 3360.58 1211.55C3359.96 1206.03 3359.72 1205.59 3357.2 1205.3C3354.96 1205.04 3354.44 1204.43 3354.18 1201.74C3353.91 1198.88 3353.52 1198.49 3350.93 1198.49C3348.34 1198.49 3348 1198.14 3348 1195.49C3348 1192.82 3347.66 1192.49 3345 1192.49C3342.24 1192.49 3342 1192.21 3342 1188.99C3342 1185.76 3341.76 1185.49 3339 1185.49C3336.33 1185.49 3336 1185.15 3336 1182.49C3336 1179.72 3335.72 1179.49 3332.5 1179.49C3329.28 1179.49 3329 1179.25 3329 1176.49C3329 1173.82 3328.66 1173.49 3326 1173.49C3323.24 1173.49 3323 1173.21 3323 1169.99C3323 1166.76 3322.76 1166.49 3320 1166.49C3317.33 1166.49 3317 1166.15 3317 1163.49C3317 1160.72 3316.72 1160.49 3313.5 1160.49C3310.16 1160.49 3310 1160.32 3310 1156.99C3310 1153.79 3309.75 1153.49 3307.1 1153.49C3304.29 1153.49 3304.17 1153.28 3303.5 1147.49C3302.82 1141.69 3302.7 1141.49 3299.9 1141.49C3297.34 1141.49 3297 1141.13 3297 1138.49C3297 1135.82 3296.66 1135.49 3294 1135.49C3291.35 1135.49 3291 1135.15 3291 1132.55C3291 1129.97 3290.61 1129.58 3287.75 1129.3C3284.89 1129.02 3284.46 1128.59 3284.18 1125.74C3283.91 1122.88 3283.52 1122.49 3280.93 1122.49C3278.34 1122.49 3278 1122.14 3278 1119.49C3278 1116.82 3277.66 1116.49 3275 1116.49C3272.35 1116.49 3272 1116.15 3272 1113.55C3272 1110.97 3271.61 1110.58 3268.75 1110.3C3265.89 1110.02 3265.46 1109.59 3265.18 1106.74C3264.91 1103.88 3264.52 1103.49 3261.93 1103.49C3259.34 1103.49 3259 1103.14 3259 1100.49C3259 1097.82 3258.66 1097.49 3256 1097.49C3253.35 1097.49 3253 1097.15 3253 1094.55C3253 1091.97 3252.61 1091.58 3249.75 1091.3C3246.89 1091.02 3246.46 1090.59 3246.18 1087.74C3245.91 1084.88 3245.52 1084.49 3242.93 1084.49C3240.34 1084.49 3240 1084.14 3240 1081.49C3240 1078.82 3239.66 1078.49 3237 1078.49C3234.35 1078.49 3234 1078.15 3234 1075.55C3234 1072.97 3233.61 1072.58 3230.75 1072.3C3227.91 1072.03 3227.46 1071.58 3227.19 1068.83C3226.89 1065.76 3226.71 1065.65 3220.94 1064.98C3215.21 1064.31 3215 1064.19 3215 1061.39C3215 1058.83 3214.64 1058.49 3212 1058.49C3209.33 1058.49 3209 1058.15 3209 1055.49C3209 1052.72 3208.72 1052.49 3205.5 1052.49C3202.28 1052.49 3202 1052.25 3202 1049.49C3202 1046.82 3201.66 1046.49 3199 1046.49C3196.24 1046.49 3196 1046.21 3196 1042.99C3196 1039.76 3195.76 1039.49 3193 1039.49C3190.33 1039.49 3190 1039.15 3190 1036.49C3190 1033.72 3189.72 1033.49 3186.5 1033.49C3183.28 1033.49 3183 1033.25 3183 1030.49C3183 1027.82 3182.66 1027.49 3180 1027.49C3177.35 1027.49 3177 1027.15 3177 1024.55C3177 1021.97 3176.61 1021.58 3173.75 1021.3C3170.89 1021.02 3170.46 1020.59 3170.18 1017.74C3169.91 1014.88 3169.52 1014.49 3166.93 1014.49C3164.36 1014.49 3164 1014.13 3164 1011.58C3164 1008.79 3163.79 1008.66 3158.06 1007.99C3152.57 1007.36 3152.09 1007.1 3151.81 1004.64C3151.55 1002.45 3150.92 1001.93 3148.25 1001.67C3145.39 1001.4 3145 1001.01 3145 998.423C3145 995.826 3144.65 995.486 3142 995.486C3139.35 995.486 3139 995.146 3139 992.549C3139 989.967 3138.61 989.575 3135.75 989.299C3133.06 989.04 3132.44 988.521 3132.19 986.297C3131.95 984.218 3131.27 983.537 3129.19 983.297C3127.12 983.058 3126.43 982.373 3126.19 980.328C3125.91 977.874 3125.42 977.616 3119.94 976.979C3114.24 976.318 3114 976.173 3114 973.451C3114 970.98 3113.58 970.572 3110.75 970.299C3107.89 970.024 3107.46 969.594 3107.18 966.736C3106.91 963.878 3106.52 963.486 3103.93 963.486C3101.34 963.486 3101 963.138 3101 960.486C3101 957.724 3100.72 957.486 3097.5 957.486C3094.3 957.486 3094 957.234 3094 954.584C3094 951.782 3093.79 951.659 3088 950.986C3082.2 950.313 3082 950.19 3082 947.388C3082 944.83 3081.64 944.486 3079 944.486C3076.33 944.486 3076 944.153 3076 941.486C3076 938.724 3075.72 938.486 3072.5 938.486C3069.3 938.486 3069 938.234 3069 935.584C3069 932.785 3068.79 932.658 3063.06 931.993C3057.57 931.356 3057.09 931.098 3056.81 928.644C3056.55 926.454 3055.92 925.931 3053.25 925.673C3050.39 925.397 3050 925.005 3050 922.423C3050 919.826 3049.65 919.486 3047 919.486C3044.36 919.486 3044 919.138 3044 916.615C3044 913.852 3043.78 913.719 3038.06 913.073C3032.55 912.449 3032.1 912.208 3031.81 909.693C3031.55 907.449 3030.94 906.932 3028.25 906.673C3025.39 906.397 3025 906.005 3025 903.423C3025 900.733 3024.7 900.486 3021.5 900.486C3018.3 900.486 3018 900.234 3018 897.584C3018 894.782 3017.79 894.659 3012 893.986C3006.2 893.313 3006 893.19 3006 890.388C3006 887.738 3005.69 887.486 3002.5 887.486C2999.28 887.486 2999 887.248 2999 884.486C2999 881.486 2999 881.486 2993 881.486C2987.03 881.486 2987 881.472 2987 878.549C2987 875.967 2986.61 875.575 2983.75 875.299C2981.05 875.04 2980.44 874.523 2980.19 872.279C2979.9 869.764 2979.45 869.523 2973.94 868.899C2968.22 868.253 2968 868.12 2968 865.357C2968 862.743 2967.68 862.486 2964.5 862.486C2961.3 862.486 2961 862.234 2961 859.584C2961 856.782 2960.79 856.659 2955 855.986C2949.2 855.313 2949 855.19 2949 852.388C2949 849.738 2948.69 849.486 2945.5 849.486C2942.28 849.486 2942 849.248 2942 846.486C2942 843.486 2942 843.486 2936 843.486C2930 843.486 2930 843.486 2930 840.486C2930 837.724 2929.72 837.486 2926.5 837.486C2923.3 837.486 2923 837.234 2923 834.584C2923 831.782 2922.79 831.659 2917 830.986C2911.2 830.313 2911 830.19 2911 827.388C2911 824.486 2911 824.486 2904.5 824.486C2898 824.486 2898 824.486 2898 821.549C2898 818.967 2897.61 818.575 2894.75 818.299C2892.05 818.04 2891.44 817.523 2891.19 815.279C2890.9 812.764 2890.45 812.523 2884.94 811.899C2879.25 811.256 2879 811.11 2879 808.405C2879 805.64 2878.87 805.575 2872.75 805.284C2866.81 805.001 2866.48 804.852 2866.19 802.328C2865.91 799.874 2865.42 799.616 2859.94 798.979C2854.21 798.314 2854 798.187 2854 795.388C2854 792.738 2853.69 792.486 2850.5 792.486C2847.29 792.486 2847 792.241 2847 789.534C2847 786.611 2846.94 786.578 2840.75 786.284C2834.81 786.001 2834.48 785.852 2834.19 783.328C2833.91 780.874 2833.42 780.616 2827.94 779.979C2822.21 779.314 2822 779.187 2822 776.388C2822 773.486 2822 773.486 2815.5 773.486C2809 773.486 2809 773.486 2809 770.486C2809 767.486 2809 767.486 2803 767.486C2797.03 767.486 2797 767.468 2797 764.566C2797 761.709 2796.85 761.63 2790.5 760.949C2784.16 760.271 2784 760.18 2784 757.37C2784 754.512 2783.94 754.486 2778 754.486C2772 754.486 2772 754.486 2772 751.486C2772 748.486 2772 748.486 2765.5 748.486C2759 748.486 2759 748.485 2759 745.602C2759 742.792 2758.83 742.701 2752.5 742.023C2746.14 741.342 2746 741.263 2746 738.406C2746 735.486 2746 735.486 2739.5 735.486C2733 735.486 2733 735.486 2733 732.486C2733 729.486 2733 729.486 2727 729.486C2721.05 729.486 2721 729.46 2721 726.602C2721 723.794 2720.83 723.701 2714.56 723.029C2708.52 722.383 2708.1 722.172 2707.81 719.663C2707.51 717.116 2707.19 716.972 2701.25 716.688C2695.06 716.394 2695 716.361 2695 713.438C2695 710.574 2694.85 710.486 2690.14 710.486C2679.33 710.486 2676 709.512 2676 706.35C2676 703.52 2675.93 703.486 2670.06 703.486C2664.33 703.486 2664.12 703.391 2663.81 700.736C2663.51 698.1 2663.24 697.974 2657.25 697.688C2651.06 697.394 2651 697.361 2651 694.438C2651 691.574 2650.85 691.486 2646.14 691.486C2635.83 691.486 2632.14 690.486 2631.8 687.607C2631.51 685.128 2631.16 684.97 2625.25 684.688C2619.06 684.394 2619 684.361 2619 681.438C2619 678.486 2619 678.486 2609.5 678.486C2600 678.486 2600 678.486 2600 675.486C2600 672.486 2600 672.486 2593.5 672.486C2587.01 672.486 2587 672.48 2587 669.622C2587 666.46 2583.67 665.486 2572.86 665.486C2568.12 665.486 2568 665.408 2568 662.486C2568 659.486 2568 659.486 2558.5 659.486C2549 659.486 2549 659.486 2549 656.486C2549 653.564 2548.87 653.486 2544.14 653.486C2534.23 653.486 2530 652.438 2530 649.986C2530 647.534 2525.76 646.486 2515.86 646.486C2511.12 646.486 2511 646.408 2511 643.486C2511 640.486 2511 640.486 2501.5 640.486C2492 640.486 2492 640.486 2492 637.486C2492 634.625 2491.8 634.486 2487.75 634.477C2477.64 634.457 2473 633.356 2473 630.983C2473 628.534 2468.76 627.486 2458.86 627.486C2454.12 627.486 2454 627.408 2454 624.486C2454 621.486 2454 621.486 2441.5 621.486C2429 621.486 2429 621.486 2429 618.486C2429 615.575 2428.86 615.486 2424.25 615.477C2413.59 615.458 2409 614.395 2409 611.947C2409 609.76 2408.6 609.664 2396.5 608.966C2384 608.245 2384 608.245 2384 605.366C2384 602.486 2384 602.486 2371.5 602.486C2359 602.486 2359 602.486 2359 599.486C2359 596.486 2359 596.486 2352.65 596.486C2335.12 596.486 2328.12 595.39 2327.8 592.59C2327.5 589.986 2327.5 589.986 2314.75 589.706C2302 589.426 2302 589.426 2302 586.456C2302 583.486 2302 583.486 2283 583.486C2264 583.486 2264 583.486 2264 580.599C2264 577.712 2264 577.712 2238.5 576.976C2213 576.241 2213 576.241 2213 573.863C2213 571.527 2212.83 571.486 2203.5 571.486C2194.16 571.486 2194 571.526 2194 573.868C2194 576.25 2194 576.25 2169 576.986C2144 577.722 2144 577.722 2144 580.604C2144 583.486 2144 583.486 2131 583.486C2118 583.486 2118 583.486 2118 586.486C2118 589.408 2117.87 589.486 2113.14 589.486C2103.14 589.486 2099 590.528 2099 593.042C2099 595.116 2098.4 595.391 2092.5 596.023C2086.16 596.701 2086 596.792 2086 599.602C2086 602.486 2086 602.486 2077 602.486C2068 602.486 2068 602.486 2068 605.486C2068 608.248 2067.72 608.486 2064.5 608.486C2061.3 608.486 2061 608.735 2061 611.406C2061 614.263 2060.85 614.342 2054.5 615.023C2048.16 615.701 2048 615.792 2048 618.602C2048 621.46 2047.94 621.486 2042 621.486C2036.03 621.486 2036 621.5 2036 624.423C2036 627.005 2035.61 627.397 2032.75 627.673C2030.04 627.934 2029.44 628.445 2029.18 630.736C2028.92 633.039 2028.39 633.486 2025.93 633.486C2023.25 633.486 2023 633.781 2023 636.986C2023 640.486 2023 640.486 2017 640.486C2011 640.486 2011 640.486 2011 643.486C2011 646.248 2010.72 646.486 2007.5 646.486C2004.16 646.486 2004 646.653 2004 649.986C2004 653.208 2003.76 653.486 2001 653.486C1998.33 653.486 1998 653.819 1998 656.486C1998 659.248 1997.72 659.486 1994.5 659.486C1991.28 659.486 1991 659.724 1991 662.486C1991 665.153 1990.66 665.486 1988 665.486C1985.24 665.486 1985 665.764 1985 668.986C1985 672.208 1984.76 672.486 1982 672.486C1979.35 672.486 1979 672.826 1979 675.423C1979 678.005 1978.61 678.397 1975.75 678.673C1972.89 678.948 1972.46 679.378 1972.18 682.236C1971.91 685.094 1971.52 685.486 1968.93 685.486C1966.01 685.486 1966 685.515 1966 691.486C1966 697.486 1966 697.486 1963 697.486C1960.35 697.486 1960 697.826 1960 700.423C1960 703.005 1959.61 703.397 1956.75 703.673C1953.5 703.986 1953.5 703.986 1953.2 710.236C1952.91 716.424 1952.87 716.486 1949.95 716.486C1947.24 716.486 1947 716.776 1947 719.986C1947 723.182 1946.75 723.486 1944.1 723.486C1941.29 723.486 1941.17 723.691 1940.5 729.486C1939.82 735.281 1939.7 735.486 1936.9 735.486C1934 735.486 1934 735.486 1934 741.986C1934 748.486 1934 748.486 1931 748.486C1928 748.486 1928 748.486 1928 754.986C1928 761.486 1928 761.486 1925 761.486C1922.14 761.486 1922 761.682 1921.99 765.736C1921.97 776.829 1920.94 780.486 1917.86 780.486C1915 780.486 1915 780.486 1915 789.986C1915 799.486 1915 799.486 1912.02 799.486C1909.05 799.486 1909.05 799.486 1908.77 815.236C1908.5 830.986 1908.5 830.986 1905.91 831.287C1899.79 831.998 1899.79 1412.97 1905.91 1413.69C1908.5 1413.99 1908.5 1413.99 1908.77 1429.74C1909.05 1445.49 1909.05 1445.49 1912.02 1445.49C1915 1445.49 1915 1445.49 1915 1454.99C1915 1464.49 1915 1464.49 1917.86 1464.49C1920.94 1464.49 1921.97 1468.14 1921.99 1479.24C1922 1483.29 1922.14 1483.49 1925 1483.49C1928 1483.49 1928 1483.49 1928 1489.99C1928 1496.49 1928 1496.49 1930.95 1496.49C1933.87 1496.49 1933.91 1496.55 1934.2 1502.74C1934.48 1508.67 1934.63 1509 1937.16 1509.29C1939.61 1509.58 1939.87 1510.06 1940.5 1515.54C1941.17 1521.28 1941.3 1521.49 1944.1 1521.49C1946.75 1521.49 1947 1521.79 1947 1524.99C1947 1528.21 1947.24 1528.49 1950 1528.49C1952.99 1528.49 1953 1528.49 1953 1534.42C1953 1540.36 1953 1540.36 1956.25 1540.67C1959.11 1540.95 1959.54 1541.38 1959.81 1544.24C1960.07 1546.89 1960.56 1547.49 1962.46 1547.49C1964.58 1547.49 1964.87 1548.06 1965.5 1553.49C1966.17 1559.25 1966.31 1559.49 1969.03 1559.49C1971.5 1559.49 1971.91 1559.91 1972.18 1562.74C1972.46 1565.59 1972.89 1566.02 1975.75 1566.3C1978.61 1566.58 1979 1566.97 1979 1569.55C1979 1572.15 1979.35 1572.49 1982 1572.49C1984.76 1572.49 1985 1572.76 1985 1575.99C1985 1579.21 1985.24 1579.49 1988 1579.49C1990.66 1579.49 1991 1579.82 1991 1582.49C1991 1585.25 1991.28 1585.49 1994.5 1585.49C1997.72 1585.49 1998 1585.72 1998 1588.49C1998 1591.15 1998.33 1591.49 2001 1591.49C2003.76 1591.49 2004 1591.76 2004 1594.99C2004 1598.21 2004.24 1598.49 2007 1598.49C2009.66 1598.49 2010 1598.82 2010 1601.49C2010 1604.25 2010.28 1604.49 2013.5 1604.49C2016.69 1604.49 2017 1604.74 2017 1607.39C2017 1610.19 2017.21 1610.31 2022.94 1610.98C2028.42 1611.62 2028.91 1611.87 2029.19 1614.33C2029.44 1616.52 2030.07 1617.04 2032.75 1617.3C2035.61 1617.58 2036 1617.97 2036 1620.55C2036 1623.15 2036.35 1623.49 2039 1623.49C2041.66 1623.49 2042 1623.82 2042 1626.49C2042 1629.49 2042 1629.49 2048.5 1629.49C2055 1629.49 2055 1629.49 2055 1632.39C2055 1635.19 2055.2 1635.31 2061 1635.99C2066.79 1636.66 2067 1636.78 2067 1639.58C2067 1642.49 2067 1642.49 2073.5 1642.49C2080 1642.49 2080 1642.49 2080 1645.49C2080 1648.49 2080 1648.49 2086.5 1648.49C2093 1648.49 2093 1648.49 2093 1651.49C2093 1654.35 2093.19 1654.49 2097.25 1654.5C2108.34 1654.52 2112 1655.54 2112 1658.63C2112 1661.49 2112 1661.49 2121.5 1661.49C2131 1661.49 2131 1661.49 2131 1664.49C2131 1667.49 2131 1667.49 2140.5 1667.49C2150 1667.49 2150 1667.49 2150 1670.35C2150 1673.51 2153.33 1674.49 2164.14 1674.49C2168.87 1674.49 2169 1674.56 2169 1677.49C2169 1680.49 2169 1680.49 2178.5 1680.49C2188 1680.49 2188 1680.49 2188 1683.49C2188 1686.41 2188.12 1686.49 2192.86 1686.49C2202.86 1686.49 2207 1687.53 2207 1690.04C2207 1692.12 2207.6 1692.39 2213.5 1693.02C2219.83 1693.7 2220 1693.79 2220 1696.6C2220 1699.49 2220 1699.49 2229 1699.49C2238 1699.49 2238 1699.49 2238 1702.37C2238 1705.18 2238.17 1705.27 2244.44 1705.94C2250.47 1706.59 2250.9 1706.8 2251.19 1709.31C2251.48 1711.86 2251.8 1712 2257.75 1712.28C2263.94 1712.58 2264 1712.61 2264 1715.53C2264 1718.48 2264.02 1718.49 2270 1718.49C2275.94 1718.49 2276 1718.51 2276 1721.37C2276 1724.18 2276.17 1724.27 2282.44 1724.94C2288.47 1725.59 2288.9 1725.8 2289.19 1728.31C2289.48 1730.86 2289.8 1731 2295.75 1731.28C2301.94 1731.58 2302 1731.61 2302 1734.53C2302 1737.24 2302.29 1737.49 2305.5 1737.49C2308.72 1737.49 2309 1737.72 2309 1740.49C2309 1743.49 2309 1743.49 2315 1743.49C2320.95 1743.49 2321 1743.51 2321 1746.39C2321 1749.19 2321.2 1749.31 2327 1749.99C2332.79 1750.66 2333 1750.78 2333 1753.58C2333 1756.23 2333.3 1756.49 2336.5 1756.49C2339.69 1756.49 2340 1756.74 2340 1759.37C2340 1762.18 2340.16 1762.27 2346.5 1762.95C2352.85 1763.63 2353 1763.71 2353 1766.57C2353 1769.14 2353.35 1769.49 2356 1769.49C2358.66 1769.49 2359 1769.82 2359 1772.49C2359 1775.49 2359 1775.49 2365.5 1775.49C2372 1775.49 2372 1775.49 2372 1778.49C2372 1781.15 2372.33 1781.49 2375 1781.49C2377.64 1781.49 2378 1781.83 2378 1784.39C2378 1787.19 2378.2 1787.31 2384 1787.99C2389.79 1788.66 2390 1788.78 2390 1791.58C2390 1794.23 2390.3 1794.49 2393.5 1794.49C2396.7 1794.49 2397 1794.73 2397 1797.42C2397 1800.01 2397.39 1800.4 2400.25 1800.67C2402.94 1800.93 2403.55 1801.45 2403.81 1803.68C2404.05 1805.75 2404.73 1806.44 2406.81 1806.68C2409.03 1806.93 2409.55 1807.55 2409.81 1810.24C2410.12 1813.49 2410.12 1813.49 2416.06 1813.49C2421.96 1813.49 2422 1813.5 2422 1816.42C2422 1819.01 2422.39 1819.4 2425.25 1819.67C2428.11 1819.95 2428.54 1820.38 2428.81 1823.24C2429.09 1826.09 2429.48 1826.49 2432.06 1826.49C2434.66 1826.49 2435 1826.83 2435 1829.49C2435 1832.25 2435.28 1832.49 2438.5 1832.49C2441.72 1832.49 2442 1832.72 2442 1835.49C2442 1838.15 2442.33 1838.49 2445 1838.49C2447.65 1838.49 2448 1838.83 2448 1841.42C2448 1844.01 2448.39 1844.4 2451.25 1844.67C2454.08 1844.95 2454.54 1845.39 2454.8 1848.13C2455.09 1851.13 2455.35 1851.3 2460.49 1851.94C2465.39 1852.55 2465.91 1852.86 2466.19 1855.3C2466.44 1857.52 2467.06 1858.04 2469.75 1858.3C2472.61 1858.58 2473 1858.97 2473 1861.55C2473 1864.15 2473.35 1864.49 2476 1864.49C2478.65 1864.49 2479 1864.83 2479 1867.42C2479 1870.01 2479.39 1870.4 2482.25 1870.67C2485.11 1870.95 2485.54 1871.38 2485.81 1874.24C2486.09 1877.09 2486.48 1877.49 2489.06 1877.49C2491.66 1877.49 2492 1877.83 2492 1880.49C2492 1883.14 2492.34 1883.49 2494.93 1883.49C2497.52 1883.49 2497.91 1883.88 2498.18 1886.74C2498.44 1889.42 2498.96 1890.04 2501.18 1890.3C2503.63 1890.58 2503.93 1891.09 2504.54 1895.99C2505.18 1901.13 2505.36 1901.39 2508.36 1901.68C2511.09 1901.95 2511.54 1902.4 2511.81 1905.24C2512.09 1908.09 2512.48 1908.49 2515.06 1908.49C2517.66 1908.49 2518 1908.83 2518 1911.49C2518 1914.15 2518.33 1914.49 2521 1914.49C2523.76 1914.49 2524 1914.76 2524 1917.99C2524 1921.21 2524.24 1921.49 2527 1921.49C2529.65 1921.49 2530 1921.83 2530 1924.42C2530 1927.01 2530.39 1927.4 2533.25 1927.67C2536.11 1927.95 2536.54 1928.38 2536.81 1931.24C2537.07 1933.91 2537.55 1934.49 2539.51 1934.49C2541.69 1934.49 2541.96 1935.02 2542.58 1940.49C2543.23 1946.23 2543.37 1946.49 2546.06 1946.49C2548.5 1946.49 2548.91 1946.92 2549.18 1949.74C2549.46 1952.59 2549.89 1953.02 2552.75 1953.3C2555.61 1953.58 2556 1953.97 2556 1956.55C2556 1959.15 2556.35 1959.49 2559 1959.49C2562 1959.49 2562 1959.49 2562 1965.49C2562 1971.49 2562 1971.49 2565 1971.49C2567.76 1971.49 2568 1971.76 2568 1974.99C2568 1978.19 2568.24 1978.49 2570.93 1978.49C2573.52 1978.49 2573.91 1978.88 2574.18 1981.74C2574.46 1984.59 2574.89 1985.02 2577.75 1985.3C2581 1985.61 2581 1985.61 2581 1991.55C2581 1997.43 2581.02 1997.49 2583.9 1997.49C2586.7 1997.49 2586.83 1997.7 2587.49 2003.43C2588.13 2008.91 2588.39 2009.4 2590.84 2009.68C2593.03 2009.93 2593.55 2010.56 2593.81 2013.24C2594.09 2016.09 2594.48 2016.49 2597.06 2016.49C2599.98 2016.49 2600 2016.52 2600 2022.49C2600 2028.49 2600 2028.49 2603 2028.49C2605.76 2028.49 2606 2028.76 2606 2031.99C2606 2035.19 2606.25 2035.49 2608.92 2035.49C2611.77 2035.49 2611.85 2035.63 2612.53 2041.99C2613.21 2048.32 2613.3 2048.49 2616.11 2048.49C2618.97 2048.49 2619 2048.54 2619 2054.49C2619 2060.43 2619.02 2060.49 2621.88 2060.49C2624.69 2060.49 2624.78 2060.65 2625.46 2066.99C2626.14 2073.34 2626.22 2073.49 2629.08 2073.49C2632 2073.49 2632 2073.49 2632 2079.99C2632 2086.49 2632 2086.49 2635 2086.49C2638 2086.49 2638 2086.49 2638 2092.49C2638 2098.43 2638.02 2098.49 2640.88 2098.49C2643.69 2098.49 2643.78 2098.65 2644.45 2104.93C2645.1 2110.96 2645.31 2111.39 2647.82 2111.68C2650.37 2111.97 2650.51 2112.29 2650.8 2118.24C2651.09 2124.42 2651.12 2124.49 2654.05 2124.49C2657 2124.49 2657 2124.49 2657 2133.49C2657 2142.49 2657 2142.49 2659.87 2142.49C2662.69 2142.49 2662.75 2142.61 2663.43 2149.49C2664.06 2155.93 2664.3 2156.49 2666.42 2156.49C2668.96 2156.49 2670 2160.6 2670 2170.63C2670 2175.36 2670.08 2175.49 2673 2175.49C2676 2175.49 2676 2175.49 2676 2184.49C2676 2193.49 2676 2193.49 2679 2193.49C2681.91 2193.49 2682 2193.63 2682.01 2198.24C2682.03 2208.83 2683.09 2213.49 2685.5 2213.49C2688.11 2213.49 2689 2217.73 2689 2230.13C2689 2237.49 2689 2237.49 2692 2237.49C2695 2237.49 2695 2237.49 2695 2245.85C2695 2259.3 2695.83 2263.49 2698.52 2263.49C2700.71 2263.49 2700.8 2263.88 2701.5 2276.49C2702.2 2289.09 2702.29 2289.49 2704.47 2289.49C2707.39 2289.49 2708 2293.59 2708 2313.13C2708 2327.49 2708 2327.49 2711 2327.49C2714 2327.49 2714 2327.49 2714 2350.85C2714 2379.86 2714.4 2383.49 2717.63 2383.49C2720 2383.49 2720 2383.49 2720 2444.49C2720 2505.49 2720 2505.49 2717.65 2505.49C2714.67 2505.49 2714 2512.98 2714 2546.14C2714 2568.49 2714 2568.49 2711 2568.49C2708 2568.49 2708 2568.49 2708 2582.35C2708 2601.37 2707.37 2605.49 2704.47 2605.49C2702.29 2605.49 2702.2 2605.88 2701.5 2618.49C2700.77 2631.49 2700.77 2631.49 2697.89 2631.49C2695 2631.49 2695 2631.49 2695 2643.99C2695 2656.49 2695 2656.49 2692 2656.49C2689 2656.49 2689 2656.49 2689 2664.85C2689 2678.25 2688.16 2682.49 2685.5 2682.49C2683.05 2682.49 2682 2686.72 2682 2696.63C2682 2701.36 2681.92 2701.49 2679 2701.49C2676 2701.49 2676 2701.49 2676 2710.99C2676 2720.49 2676 2720.49 2673 2720.49C2670.08 2720.49 2670 2720.61 2670 2725.35C2670 2736.16 2669.02 2739.49 2665.86 2739.49C2663 2739.49 2663 2739.5 2663 2745.99C2663 2752.49 2663 2752.49 2660 2752.49C2657 2752.49 2657 2752.49 2657 2761.49C2657 2770.49 2657 2770.49 2654.11 2770.49C2651.31 2770.49 2651.21 2770.65 2650.54 2776.93C2649.89 2782.96 2649.68 2783.39 2647.17 2783.68C2644.63 2783.97 2644.48 2784.29 2644.2 2790.24C2643.91 2796.42 2643.87 2796.49 2640.95 2796.49C2638 2796.49 2638 2796.49 2638 2802.99C2638 2809.49 2638 2809.49 2635 2809.49C2632 2809.49 2632 2809.49 2632 2815.49C2632 2821.45 2631.98 2821.49 2629.08 2821.49C2626.22 2821.49 2626.14 2821.63 2625.46 2827.99C2624.78 2834.32 2624.69 2834.49 2621.88 2834.49C2619.02 2834.49 2619 2834.54 2619 2840.49C2619 2846.49 2619 2846.49 2616 2846.49C2613.24 2846.49 2613 2846.76 2613 2849.99C2613 2853.19 2612.75 2853.49 2610.08 2853.49C2607.22 2853.49 2607.14 2853.63 2606.46 2859.99C2605.78 2866.32 2605.69 2866.49 2602.88 2866.49C2600.02 2866.49 2600 2866.54 2600 2872.49C2600 2878.46 2599.98 2878.49 2597.06 2878.49C2594.48 2878.49 2594.09 2878.88 2593.81 2881.74C2593.55 2884.41 2593.03 2885.04 2590.84 2885.29C2588.39 2885.58 2588.13 2886.06 2587.49 2891.54C2586.83 2897.28 2586.7 2897.49 2583.9 2897.49C2581.25 2897.49 2581 2897.79 2581 2900.99C2581 2904.18 2580.75 2904.49 2578.1 2904.49C2575.29 2904.49 2575.17 2904.69 2574.5 2910.49C2573.82 2916.28 2573.7 2916.49 2570.9 2916.49C2568.25 2916.49 2568 2916.79 2568 2919.99C2568 2923.21 2567.76 2923.49 2565 2923.49C2562 2923.49 2562 2923.49 2562 2929.49C2562 2935.46 2561.98 2935.49 2559.06 2935.49C2556.48 2935.49 2556.09 2935.88 2555.81 2938.74C2555.54 2941.59 2555.11 2942.02 2552.25 2942.3C2549.39 2942.58 2549 2942.97 2549 2945.55C2549 2948.15 2548.65 2948.49 2546 2948.49C2543.24 2948.49 2543 2948.76 2543 2951.99C2543 2955.18 2542.75 2955.49 2540.1 2955.49C2537.29 2955.49 2537.17 2955.69 2536.5 2961.49C2535.82 2967.28 2535.7 2967.49 2532.9 2967.49C2530.34 2967.49 2530 2967.84 2530 2970.49C2530 2973.15 2529.66 2973.49 2527 2973.49C2524.24 2973.49 2524 2973.76 2524 2976.99C2524 2980.21 2523.76 2980.49 2521 2980.49C2518.35 2980.49 2518 2980.83 2518 2983.42C2518 2986.01 2517.61 2986.4 2514.75 2986.67C2511.89 2986.95 2511.46 2987.38 2511.18 2990.24C2510.91 2993.09 2510.52 2993.49 2507.93 2993.49C2505.34 2993.49 2505 2993.83 2505 2996.49C2505 2999.14 2504.66 2999.49 2502.06 2999.49C2499.48 2999.49 2499.09 2999.88 2498.81 3002.74C2498.55 3005.42 2498.03 3006.04 2495.81 3006.3C2493.73 3006.54 2493.05 3007.22 2492.81 3009.3C2492.55 3011.52 2491.94 3012.04 2489.25 3012.3C2486.39 3012.58 2486 3012.97 2486 3015.55C2486 3018.13 2485.64 3018.49 2483.06 3018.49C2480.48 3018.49 2480.09 3018.88 2479.81 3021.74C2479.55 3024.42 2479.03 3025.04 2476.81 3025.3C2474.73 3025.54 2474.05 3026.22 2473.81 3028.3C2473.55 3030.52 2472.94 3031.04 2470.25 3031.3C2467.39 3031.58 2467 3031.97 2467 3034.55C2467 3037.13 2466.64 3037.49 2464.06 3037.49C2461.48 3037.49 2461.09 3037.88 2460.81 3040.74C2460.55 3043.42 2460.03 3044.04 2457.81 3044.3C2455.73 3044.54 2455.05 3045.22 2454.81 3047.3C2454.55 3049.52 2453.94 3050.04 2451.25 3050.3C2448.39 3050.58 2448 3050.97 2448 3053.55C2448 3056.15 2447.65 3056.49 2445 3056.49C2442.33 3056.49 2442 3056.82 2442 3059.49C2442 3062.25 2441.72 3062.49 2438.5 3062.49C2435.28 3062.49 2435 3062.72 2435 3065.49C2435 3068.15 2434.66 3068.49 2432 3068.49C2429.24 3068.49 2429 3068.76 2429 3071.99C2429 3075.32 2428.83 3075.49 2425.5 3075.49C2422.3 3075.49 2422 3075.74 2422 3078.39C2422 3081.19 2421.79 3081.31 2416 3081.99C2410.2 3082.66 2410 3082.78 2410 3085.58C2410 3088.23 2409.69 3088.49 2406.5 3088.49C2403.28 3088.49 2403 3088.72 2403 3091.49C2403 3094.15 2402.66 3094.49 2400 3094.49C2397.35 3094.49 2397 3094.83 2397 3097.42C2397 3100.01 2396.61 3100.4 2393.75 3100.67C2391.07 3100.93 2390.44 3101.45 2390.19 3103.64C2389.91 3106.1 2389.42 3106.36 2383.94 3106.99C2378.21 3107.66 2378 3107.79 2378 3110.58C2378 3113.14 2377.64 3113.49 2375 3113.49C2372.36 3113.49 2372 3113.83 2372 3116.37C2372 3119.18 2371.83 3119.27 2365.5 3119.95C2359.14 3120.63 2359 3120.71 2359 3123.57C2359 3126.14 2358.65 3126.49 2356 3126.49C2353.33 3126.49 2353 3126.82 2353 3129.49C2353 3132.49 2353 3132.49 2346.5 3132.49C2340 3132.49 2340 3132.49 2340 3135.42C2340 3138.01 2339.61 3138.4 2336.75 3138.67C2334.07 3138.93 2333.44 3139.45 2333.19 3141.64C2332.91 3144.1 2332.42 3144.36 2326.94 3144.99C2321.21 3145.66 2321 3145.79 2321 3148.58C2321 3151.46 2320.95 3151.49 2315 3151.49C2309.05 3151.49 2309 3151.51 2309 3154.37C2309 3157.18 2308.83 3157.27 2302.56 3157.94C2296.52 3158.59 2296.1 3158.8 2295.81 3161.31C2295.51 3163.86 2295.19 3164 2289.25 3164.28C2283.06 3164.58 2283 3164.61 2283 3167.53C2283 3170.24 2282.71 3170.49 2279.5 3170.49C2276.28 3170.49 2276 3170.72 2276 3173.49C2276 3176.49 2276 3176.49 2270 3176.49C2264.06 3176.49 2264 3176.52 2264 3179.35C2264 3182.51 2260.67 3183.49 2249.86 3183.49C2245.12 3183.49 2245 3183.56 2245 3186.49C2245 3189.49 2245 3189.49 2239 3189.49C2233.05 3189.49 2233 3189.51 2233 3192.37C2233 3195.18 2232.83 3195.27 2226.56 3195.94C2220.52 3196.59 2220.1 3196.8 2219.81 3199.31C2219.51 3201.86 2219.19 3202 2213.25 3202.28C2207.06 3202.58 2207 3202.61 2207 3205.53C2207 3208.49 2207 3208.49 2197.5 3208.49C2188 3208.49 2188 3208.49 2188 3211.49C2188 3214.41 2187.87 3214.49 2183.14 3214.49C2172.33 3214.49 2169 3215.46 2169 3218.62C2169 3221.49 2169 3221.49 2159.5 3221.49C2150 3221.49 2150 3221.49 2150 3224.45C2150 3227.41 2150 3227.41 2140.25 3227.7C2130.5 3227.99 2130.5 3227.99 2130.18 3230.74C2129.87 3233.45 2129.77 3233.49 2122.68 3233.5C2109.67 3233.51 2105 3234.43 2105 3236.99C2105 3239.62 2100.76 3240.49 2087.86 3240.49C2080 3240.49 2080 3240.49 2080 3243.46C2080 3246.44 2080 3246.44 2064.25 3246.71C2048.5 3246.99 2048.5 3246.99 2048.2 3249.58C2047.88 3252.33 2037.2 3253.47 2011.75 3253.48C2004.27 3253.49 2004 3253.57 2004 3255.85C2004 3259.45 2002.97 3259.49 1903.11 3259.48C1803.08 3259.47 1801 3259.4 1801 3255.96C1801 3253.74 1800.81 3253.71 1782 3252.99C1763 3252.26 1763 3252.26 1763 3249.37C1763 3246.49 1763 3246.49 1747.5 3246.49C1732 3246.49 1732 3246.49 1732 3243.49C1732 3240.49 1732 3240.49 1723.64 3240.49C1710.23 3240.49 1706 3239.65 1706 3236.99C1706 3234.53 1701.76 3233.49 1691.86 3233.49C1687.12 3233.49 1687 3233.41 1687 3230.49C1687 3227.49 1687 3227.49 1674.5 3227.49C1662 3227.49 1662 3227.49 1662 3224.49C1662 3221.49 1662 3221.49 1655.5 3221.49C1649.01 3221.49 1649 3221.48 1649 3218.63C1649 3215.54 1645.34 3214.52 1634.25 3214.5C1630.19 3214.49 1630 3214.35 1630 3211.49C1630 3208.49 1630 3208.49 1620.5 3208.49C1611 3208.49 1611 3208.49 1611 3205.49C1611 3202.49 1611 3202.49 1604.5 3202.49C1598.01 3202.49 1598 3202.48 1598 3199.62C1598 3196.5 1594.66 3195.49 1584.36 3195.49C1580.18 3195.49 1580 3195.36 1580 3192.49C1580 3189.49 1580 3189.49 1573.5 3189.49C1567 3189.49 1567 3189.49 1567 3186.6C1567 3183.79 1566.83 3183.7 1560.56 3183.03C1554.52 3182.38 1554.1 3182.17 1553.81 3179.66C1553.51 3177.12 1553.19 3176.97 1547.25 3176.69C1541.06 3176.39 1541 3176.36 1541 3173.44C1541 3170.5 1540.98 3170.49 1535 3170.49C1529 3170.49 1529 3170.49 1529 3167.49C1529 3164.72 1528.72 3164.49 1525.5 3164.49C1522.3 3164.49 1522 3164.24 1522 3161.57C1522 3158.71 1521.85 3158.63 1515.5 3157.95C1509.16 3157.27 1509 3157.18 1509 3154.37C1509 3151.51 1508.94 3151.49 1503 3151.49C1497.05 3151.49 1497 3151.46 1497 3148.6C1497 3145.79 1496.83 3145.7 1490.5 3145.02C1484.14 3144.34 1484 3144.26 1484 3141.41C1484 3138.74 1483.7 3138.49 1480.5 3138.49C1477.28 3138.49 1477 3138.25 1477 3135.49C1477 3132.49 1477 3132.49 1471 3132.49C1465.03 3132.49 1465 3132.47 1465 3129.55C1465 3126.97 1464.61 3126.58 1461.75 3126.3C1459.05 3126.04 1458.44 3125.52 1458.19 3123.28C1457.9 3120.76 1457.45 3120.52 1451.94 3119.9C1446.22 3119.25 1446 3119.12 1446 3116.36C1446 3113.74 1445.68 3113.49 1442.5 3113.49C1439.3 3113.49 1439 3113.23 1439 3110.58C1439 3107.78 1438.79 3107.66 1433 3106.99C1427.2 3106.31 1427 3106.19 1427 3103.39C1427 3100.83 1426.64 3100.49 1424 3100.49C1421.33 3100.49 1421 3100.15 1421 3097.49C1421 3094.72 1420.72 3094.49 1417.5 3094.49C1414.29 3094.49 1414 3094.24 1414 3091.55C1414 3088.97 1413.61 3088.58 1410.75 3088.3C1408.05 3088.04 1407.44 3087.52 1407.19 3085.28C1406.9 3082.76 1406.45 3082.52 1400.94 3081.9C1395.22 3081.25 1395 3081.12 1395 3078.36C1395 3075.83 1394.63 3075.49 1392 3075.49C1389.35 3075.49 1389 3075.15 1389 3072.55C1389 3069.97 1388.61 3069.58 1385.75 3069.3C1382.89 3069.02 1382.46 3068.59 1382.18 3065.74C1381.91 3062.88 1381.52 3062.49 1378.93 3062.49C1376.35 3062.49 1376 3062.13 1376 3059.55C1376 3056.97 1375.61 3056.58 1372.75 3056.3C1370.08 3056.04 1369.44 3055.52 1369.19 3053.34C1368.91 3050.95 1368.37 3050.64 1363.5 3050.03C1358.6 3049.42 1358.09 3049.12 1357.81 3046.67C1357.55 3044.45 1356.93 3043.93 1354.25 3043.67C1351.39 3043.4 1351 3043.01 1351 3040.42C1351 3037.84 1350.64 3037.49 1348.06 3037.49C1345.48 3037.49 1345.09 3037.09 1344.81 3034.24C1344.54 3031.38 1344.11 3030.95 1341.25 3030.67C1338.39 3030.4 1338 3030.01 1338 3027.42C1338 3024.83 1337.65 3024.49 1335 3024.49C1332.33 3024.49 1332 3024.15 1332 3021.49C1332 3018.83 1331.66 3018.49 1329.06 3018.49C1326.48 3018.49 1326.09 3018.09 1325.81 3015.24C1325.54 3012.38 1325.11 3011.95 1322.25 3011.67C1319.39 3011.4 1319 3011.01 1319 3008.42C1319 3005.84 1318.64 3005.49 1316.06 3005.49C1313.48 3005.49 1313.09 3005.09 1312.81 3002.24C1312.55 2999.55 1312.03 2998.93 1309.81 2998.68C1307.73 2998.44 1307.05 2997.75 1306.81 2995.68C1306.57 2993.59 1305.89 2992.92 1303.79 2992.67C1301.28 2992.38 1301.03 2991.94 1300.42 2986.48C1299.77 2980.79 1299.65 2980.59 1296.62 2980.29C1294.07 2980.04 1293.44 2979.5 1293.19 2977.3C1292.95 2975.22 1292.27 2974.54 1290.19 2974.3C1287.96 2974.04 1287.44 2973.42 1287.18 2970.74C1286.91 2967.88 1286.52 2967.49 1283.93 2967.49C1281.34 2967.49 1281 2967.14 1281 2964.49C1281 2961.82 1280.66 2961.49 1278 2961.49C1275.24 2961.49 1275 2961.21 1275 2957.99C1275 2954.78 1274.75 2954.49 1272.05 2954.49C1269.18 2954.49 1269.08 2954.31 1268.42 2948.49C1267.76 2942.7 1267.64 2942.49 1264.87 2942.49C1262.35 2942.49 1262 2942.12 1262 2939.49C1262 2936.82 1261.66 2936.49 1259 2936.49C1256.24 2936.49 1256 2936.21 1256 2932.99C1256 2929.78 1255.75 2929.49 1253.06 2929.49C1250.48 2929.49 1250.09 2929.09 1249.81 2926.24C1249.54 2923.38 1249.11 2922.95 1246.25 2922.67C1243 2922.36 1243 2922.36 1243 2916.42C1243 2910.49 1242.99 2910.49 1240 2910.49C1237.33 2910.49 1237 2910.15 1237 2907.49C1237 2904.84 1236.66 2904.49 1234.08 2904.49C1231.22 2904.49 1231.14 2904.34 1230.46 2897.99C1229.78 2891.65 1229.69 2891.49 1226.88 2891.49C1224.25 2891.49 1224 2891.18 1224 2887.99C1224 2884.76 1223.76 2884.49 1221 2884.49C1218 2884.49 1218 2884.49 1218 2878.49C1218 2872.49 1218 2872.49 1214.5 2872.49C1211 2872.49 1211 2872.49 1211 2866.49C1211 2860.49 1211 2860.49 1208 2860.49C1205.24 2860.49 1205 2860.21 1205 2856.99C1205 2853.8 1204.74 2853.49 1202.11 2853.49C1199.3 2853.49 1199.21 2853.32 1198.53 2846.99C1197.85 2840.63 1197.77 2840.49 1194.92 2840.49C1192.02 2840.49 1192 2840.45 1192 2834.49C1192 2828.49 1192 2828.49 1189 2828.49C1186 2828.49 1186 2828.49 1186 2821.99C1186 2815.49 1186 2815.49 1183.1 2815.49C1180.3 2815.49 1180.17 2815.28 1179.5 2809.54C1178.87 2804.06 1178.61 2803.58 1176.16 2803.29C1173.63 2803 1173.48 2802.67 1173.2 2796.74C1172.91 2790.55 1172.87 2790.49 1169.95 2790.49C1167 2790.49 1167 2790.49 1167 2783.99C1167 2777.49 1167 2777.49 1164.11 2777.49C1161.3 2777.49 1161.21 2777.32 1160.53 2770.99C1159.85 2764.63 1159.77 2764.49 1156.92 2764.49C1154 2764.49 1154 2764.49 1154 2757.99C1154 2751.49 1154 2751.49 1151 2751.49C1148 2751.49 1148 2751.49 1148 2742.49C1148 2733.49 1148 2733.49 1145.1 2733.49C1142.24 2733.49 1142.19 2733.38 1141.5 2726.49C1140.85 2720.08 1140.6 2719.49 1138.53 2719.49C1135.92 2719.49 1135.03 2716.11 1135.01 2706.24C1135 2700.53 1134.97 2700.49 1132.04 2700.49C1129.07 2700.49 1129.07 2700.49 1128.79 2691.24C1128.5 2682.06 1128.48 2681.98 1125.85 2681.68C1123.21 2681.37 1123.21 2681.37 1122.5 2669.49C1121.78 2657.6 1121.78 2657.6 1119.14 2657.29C1116.51 2656.99 1116.5 2656.95 1116.21 2647.24C1115.93 2637.49 1115.93 2637.49 1112.96 2637.49C1110 2637.49 1110 2637.49 1110 2624.99C1110 2612.49 1110 2612.49 1107 2612.49C1104 2612.49 1104 2612.49 1103.99 2606.24C1103.98 2588.91 1102.83 2580.49 1100.48 2580.49C1097.54 2580.49 1097 2576.35 1097 2553.85C1097 2536.49 1097 2536.49 1094 2536.49C1091 2536.49 1091 2536.49 1091 2507.15C1091 2459.87 1090.24 2447.49 1087.34 2447.49C1085 2447.49 1085 2447.49 1084.99 1410.74C1084.99 304.819 1085.11 336.754 1081.09 336.287C1078.5 335.986 1078.5 335.986 1078.22 323.236C1077.94 310.486 1077.94 310.486 1074.97 310.486C1072 310.486 1072 310.486 1072 297.986C1072 285.486 1072 285.486 1069.14 285.486C1066.05 285.486 1065.03 281.829 1065.01 270.736C1065 266.682 1064.86 266.486 1062 266.486C1059 266.486 1059 266.486 1059 259.986C1059 253.486 1059 253.486 1056 253.486C1053.05 253.486 1053 253.4 1052.99 248.236C1052.97 238.881 1052.03 235.486 1049.48 235.486C1047.45 235.486 1047.16 234.856 1046.53 228.986C1045.85 222.629 1045.77 222.486 1042.92 222.486C1040 222.486 1040 222.486 1040 215.986C1040 209.486 1040 209.486 1037 209.486C1034.24 209.486 1034 209.208 1034 205.986C1034 202.79 1033.75 202.486 1031.1 202.486C1028.29 202.486 1028.17 202.281 1027.5 196.486C1026.82 190.691 1026.7 190.486 1023.9 190.486C1021.02 190.486 1021 190.441 1021 184.486C1021 178.486 1021 178.486 1018 178.486C1015.24 178.486 1015 178.208 1015 174.986C1015 171.781 1014.75 171.486 1012.06 171.486C1009.48 171.486 1009.09 171.094 1008.81 168.236C1008.54 165.378 1008.11 164.948 1005.25 164.673C1002 164.359 1002 164.359 1002 158.423C1002 152.522 1001.98 152.486 999.061 152.486C996.479 152.486 996.087 152.094 995.811 149.236C995.536 146.378 995.106 145.948 992.248 145.673C989.39 145.397 988.998 145.005 988.998 142.423C988.998 139.826 988.65 139.486 985.998 139.486C983.331 139.486 982.998 139.153 982.998 136.486C982.998 133.834 982.658 133.486 980.061 133.486C977.479 133.486 977.087 133.094 976.811 130.236C976.536 127.378 976.106 126.948 973.248 126.673C970.39 126.397 969.998 126.005 969.998 123.423C969.998 120.826 969.65 120.486 966.998 120.486C964.331 120.486 963.998 120.153 963.998 117.486C963.998 114.834 963.658 114.486 961.061 114.486C958.479 114.486 958.087 114.094 957.811 111.236C957.536 108.378 957.106 107.948 954.248 107.673C951.39 107.397 950.998 107.005 950.998 104.423C950.998 101.826 950.65 101.486 947.998 101.486C945.346 101.486 944.998 101.146 944.998 98.5492C944.998 95.9672 944.606 95.5752 941.748 95.2992C939.054 95.0402 938.445 94.5232 938.186 92.2792C937.896 89.7642 937.45 89.5232 931.936 88.8992C926.22 88.2532 925.998 88.1202 925.998 85.3572C925.998 82.8342 925.635 82.4862 922.998 82.4862C920.346 82.4862 919.998 82.1462 919.998 79.5492C919.998 76.9672 919.606 76.5752 916.748 76.2992C914.071 76.0412 913.443 75.5183 913.189 73.3283C912.906 70.8743 912.423 70.6163 906.939 69.9793C901.207 69.3143 900.998 69.1872 900.998 66.3882C900.998 63.7382 900.694 63.4862 897.498 63.4862C894.288 63.4862 893.998 63.2412 893.998 60.5342C893.998 57.6112 893.936 57.5782 887.748 57.2842C881.814 57.0012 881.481 56.8523 881.189 54.3283C880.906 51.8743 880.423 51.6163 874.939 50.9793C869.207 50.3143 868.998 50.1872 868.998 47.3882C868.998 44.4862 868.998 44.4862 862.498 44.4862C856.001 44.4862 855.998 44.4852 855.998 41.6022C855.998 38.7922 855.834 38.7012 849.498 38.0232C843.593 37.3912 842.998 37.1173 842.998 35.0373C842.998 32.4453 839.653 31.5172 830.248 31.4972C825.084 31.4862 824.998 31.4372 824.998 28.4862C824.998 25.4862 824.998 25.4862 818.498 25.4862C812.003 25.4862 811.998 25.4842 811.998 22.6062C811.998 19.7272 811.997 19.7272 799.554 19.0092C787.111 18.2912 787.111 18.2912 786.804 15.6392C786.497 12.9862 786.498 12.9862 773.748 12.7062C760.998 12.4262 760.998 12.4262 760.998 9.45621C760.998 6.48621 760.997 6.48624 746.637 6.48624C726.876 6.48624 722.998 5.88925 722.998 2.85025C722.998 -1.19775 362.279 -0.81276 361.813 3.23624Z" fill="#7C3AED"/>
</svg>
