<svg width="6996" height="6996" viewBox="0 0 6996 6996" fill="none" xmlns="http://www.w3.org/2000/svg">
<path d="M3498 0C5429.9 0 6996 1566.11 6996 3498C6996 5429.9 5429.9 6996 3498 6996C1566.11 6996 0 5429.9 0 3498C3.29905e-05 1566.11 1566.11 3.3059e-05 3498 0ZM4747.38 3647.85C4747.37 3615.32 4706.85 3597.53 4680.16 3618.32L3196.46 4772.71C3175.12 4789.3 3177.17 4820.58 3200.56 4834.57L3462.01 4991.18C3477.05 5000.18 3496.59 4999.03 3510.33 4988.33L4732.58 4035.93C4741.98 4028.63 4747.37 4017.84 4747.38 4006.4V3647.85ZM4200.02 3190.05C4184.83 3180.71 4164.89 3181.81 4151.05 3192.75L2589.34 4426.59C2568.04 4443.44 2570.49 4474.82 2594.18 4488.56L2857.49 4641.47C2872.58 4650.27 2891.99 4648.92 2905.56 4638.17L4459.67 3409.08C4480.61 3392.54 4478.66 3361.75 4455.77 3347.66L4200.02 3190.05ZM4747.21 2039.37C4747.21 2006.84 4706.73 1989.04 4680 2009.81L2263.46 3887.85C2254.07 3895.15 2248.64 3905.99 2248.64 3917.39V4259.54C2248.64 4292.12 2289.26 4309.91 2315.97 4288.97L4732.52 2396.47C4741.81 2389.17 4747.21 2378.38 4747.21 2367V2039.37ZM3725.54 2024.31C3710.9 2008.11 3685.07 2006.06 3667.73 2019.75L2263.2 3130.08C2253.97 3137.38 2248.64 3148.13 2248.64 3159.42V3502.07C2248.64 3534.6 2289.16 3552.39 2315.88 3531.61L3910.79 2289.65C3928.33 2276.01 3930.63 2251.63 3915.89 2235.34L3725.54 2024.31ZM2793.82 2012.44C2779.22 1996.27 2753.4 1994.2 2736.09 2007.83L2263.26 2380.06C2253.99 2387.36 2248.64 2398.12 2248.64 2409.46V2753.15C2248.64 2785.51 2288.74 2803.37 2315.54 2782.94L2978.51 2277.8C2996.31 2264.23 2998.76 2239.63 2983.95 2223.22L2793.82 2012.44Z" fill="url(#paint0_linear_30_5)"/>
<defs>
<linearGradient id="paint0_linear_30_5" x1="3498" y1="0" x2="3498" y2="6996" gradientUnits="userSpaceOnUse">
<stop stop-color="#3D88FF"/>
<stop offset="0.703125" stop-color="#3D88FF"/>
</linearGradient>
</defs>
</svg>
