<svg width="2998" height="1650" viewBox="0 0 2998 1650" fill="none" xmlns="http://www.w3.org/2000/svg">
<path fill-rule="evenodd" clip-rule="evenodd" d="M2185.87 0C2634.4 0.00471429 2998 369.369 2998 825C2998 1280.63 2634.4 1650 2185.87 1650H812.139C363.612 1650 0 1280.64 0 825C0 369.364 363.612 0 812.139 0H2185.87ZM822.103 224.989C486.593 224.989 269.824 495.165 269.824 825C269.824 1154.83 486.593 1425.01 822.103 1425.01H869.415C672.885 1375.95 482.693 1154.83 482.693 825C482.693 495.165 672.885 274.051 869.415 224.989H822.103ZM1259.78 224.989C924.283 224.994 707.551 495.17 707.551 825C707.551 1154.83 924.283 1425.01 1259.78 1425.01H1307.14C1110.61 1375.95 920.373 1154.83 920.373 825C920.373 495.165 1110.62 274.046 1307.14 224.989H1259.78ZM1697.51 224.989C1362.01 224.989 1145.23 495.165 1145.23 825C1145.23 1154.83 1362 1425.01 1697.51 1425.01H1744.83C1548.3 1375.95 1358.1 1154.83 1358.1 825C1358.1 495.17 1548.3 274.051 1744.83 224.989H1697.51ZM2194.41 224.989C1860.58 224.989 1582.96 495.165 1582.96 825C1582.96 1154.83 1858.94 1425.01 2194.41 1425.01C2442.29 1425.01 2629.04 1292.39 2728.2 1093.49L2463.77 959.249C2417.5 1062.01 2323.31 1139.9 2196.07 1139.9C2024.2 1139.9 1898.58 997.378 1898.58 821.686C1898.58 645.994 2024.2 505.126 2196.07 505.126C2323.31 505.136 2419.16 583.025 2465.43 685.783L2724.88 553.193C2625.72 357.612 2438.99 224.989 2194.41 224.989Z" fill="#FF7554"/>
</svg>
