<svg width="3329" height="3946" viewBox="0 0 3329 3946" fill="none" xmlns="http://www.w3.org/2000/svg">
<path fill-rule="evenodd" clip-rule="evenodd" d="M1222.82 74.0565C186.357 347.347 -318.155 1558.55 214.868 2493.8C319.359 2677.1 946.567 3336.16 1016.57 3336.16C1095.74 3336.16 2437.66 1973.3 2470.21 1859.84C2598.48 1412.85 2183.5 1365.9 1737.99 1777.03C1233.36 2242.71 899.33 2278.75 644.998 1894.96C404.369 1531.86 467.052 1388.71 1183.62 664.976C1851.65 -9.68902 1857.17 -93.2314 1222.82 74.0565ZM1508.74 746.313C742.143 1516.56 706.461 1576.77 901.217 1771.43C1076 1946.11 1198.78 1906.65 1564.25 1558.2C2072.16 1073.95 2477.96 1060.08 2692.08 1519.67C2861.06 1882.36 2826.91 1942.83 1959.95 2816.24C1155.87 3626.33 1193.73 3555.91 1434.1 3794.03C1675.51 4033.16 1623.92 4058.73 2314.76 3357.92C3616.24 2037.69 3666.24 952.107 2458.57 234.786C2168.12 62.2752 2214.22 37.465 1508.74 746.313Z" fill="#FE1A45"/>
</svg>
