<svg width="10017" height="9007" viewBox="0 0 10017 9007" fill="none" xmlns="http://www.w3.org/2000/svg">
<path fill-rule="evenodd" clip-rule="evenodd" d="M7240.2 5484.86C8726.01 5500.6 9961.51 4331.02 10015.2 2841.02C10069.7 1327.36 8883.98 56.1958 7366.76 1.80394C6193.12 -40.2825 5164.91 658.05 4734.2 1677.11L4387.78 1152.97C3660.82 53.0228 2177.72 -250.715 1075.18 474.548C-27.349 1199.81 -331.804 2679.42 395.163 3779.37L3141.03 7934.04C3868 9033.98 5351.09 9337.73 6453.63 8612.47C7497.95 7925.49 7826.23 6561.72 7240.2 5484.86ZM8539.05 2792.52C8513.9 3490.39 7926.47 4035.79 7226.95 4010.71C6527.44 3985.63 5980.76 3399.56 6005.89 2701.7C6031.03 2003.82 6618.48 1458.42 7318 1483.51C8017.51 1508.59 8564.19 2094.66 8539.05 2792.52ZM1926.92 1727.48C2337.79 1457.19 2890.5 1570.39 3161.42 1980.3L5902.91 6128.35C6173.83 6538.27 6060.36 7089.67 5649.49 7359.96C5238.61 7630.24 4685.91 7517.05 4414.99 7107.13L1673.5 2959.06C1402.58 2549.15 1516.04 1997.75 1926.92 1727.48Z" fill="#4F46E5"/>
</svg>
