<svg width="8736" height="5330" viewBox="0 0 8736 5330" fill="none" xmlns="http://www.w3.org/2000/svg">
<path fill-rule="evenodd" clip-rule="evenodd" d="M4.52361 680.441L9.06452 1360.76L685.003 1371.61C1310.78 1381.66 1449.13 1391.43 1612.25 1437.14C1645.62 1446.48 1704.11 1462.92 1742.24 1473.64C1780.37 1484.37 1829.23 1497.46 1850.82 1502.69C1872.4 1507.93 1894.31 1519.09 1899.51 1527.48C1904.69 1535.89 1920.39 1542.75 1934.4 1542.75C1981.02 1542.75 2312.18 1711.71 2461.51 1811.69C3045.47 2202.65 3499.7 2867.6 3639.44 3536.04C3650.4 3588.47 3668.16 3666.47 3678.91 3709.37C3691.11 3758.02 3702.15 4077.56 3708.25 4558.68L3718.06 5330H4368H5017.94L5028.22 4593.35C5039.76 3765.75 5048.48 3680.28 5157.2 3328.04C5198.35 3194.7 5228.9 3114.62 5287.69 2985.91C5306.15 2945.49 5321.25 2909.06 5321.25 2904.95C5321.25 2900.82 5359.55 2831.13 5406.38 2750.04C5728.28 2192.62 6246.38 1748.98 6837.77 1524.4C6924.17 1491.58 6933.08 1488.85 7115.08 1439.08C7291.16 1390.97 7418.82 1381.76 8051 1371.61L8726.94 1360.76L8731.48 680.441L8736 0.122405H8128.19C7793.9 0.122405 7468.2 7.4716 7404.4 16.4501C7340.6 25.4285 7222.11 41.8081 7141.08 52.8319C7000.62 71.9501 6942.58 83.7712 6785.78 125.162C6648.79 161.336 6594.64 177.958 6565.04 192.917C6548.49 201.271 6524.49 208.118 6511.7 208.118C6490.39 208.118 6355.92 259.025 6205.17 324.145C6119.49 361.168 5903.07 469.447 5781.72 536.022C5316.83 791.077 4726.7 1345.38 4444.5 1792.09C4378.83 1896.03 4356.11 1892.3 4272.68 1763.87C4020.27 1375.4 3592.59 953.174 3150.13 655.637C3009.47 561.051 2546.26 312.115 2510.92 312.115C2502.6 312.115 2462.74 297.175 2422.32 278.906C2232.75 193.194 1888.24 97.5336 1612.25 53.9586C1316.47 7.26363 1179.74 -0.102922 611.135 0.0010753L0 0.122405L4.52361 680.441Z" fill="#0883C6"/>
</svg>
